<?xml version="1.0" encoding="UTF-8"?>
<!DOCTYPE svg PUBLIC "-//W3C//DTD SVG 1.1//EN" "http://www.w3.org/Graphics/SVG/1.1/DTD/svg11.dtd">
<svg xmlns="http://www.w3.org/2000/svg" version="1.1" width="500px" height="500px" style="shape-rendering:geometricPrecision; text-rendering:geometricPrecision; image-rendering:optimizeQuality; fill-rule:evenodd; clip-rule:evenodd" xmlns:xlink="http://www.w3.org/1999/xlink">
<g><path style="opacity:1" fill="#b66d23" d="M -0.5,-0.5 C 166.167,-0.5 332.833,-0.5 499.5,-0.5C 499.5,166.167 499.5,332.833 499.5,499.5C 332.833,499.5 166.167,499.5 -0.5,499.5C -0.5,332.833 -0.5,166.167 -0.5,-0.5 Z"/></g>
<g><path style="opacity:1" fill="#ad7e4a" d="M 206.5,122.5 C 206.158,123.338 205.492,123.672 204.5,123.5C 203.143,118.746 201.476,114.08 199.5,109.5C 196.788,110.915 196.288,110.581 198,108.5C 198.495,106.527 198.662,104.527 198.5,102.5C 196.738,102.357 195.071,102.691 193.5,103.5C 192.832,106.306 192.166,108.972 191.5,111.5C 191.5,107.833 191.5,104.167 191.5,100.5C 198.537,98.3641 201.87,101.031 201.5,108.5C 204.926,108.35 205.259,109.516 202.5,112C 204.073,115.504 205.407,119.004 206.5,122.5 Z"/></g>
<g><path style="opacity:1" fill="#ac7943" d="M 236.5,108.5 C 234.835,106.061 232.502,104.561 229.5,104C 228.5,103.833 227.5,103.667 226.5,103.5C 224.97,103.64 223.97,104.307 223.5,105.5C 224.5,105.5 225.5,105.5 226.5,105.5C 226.833,107.5 227.167,109.5 227.5,111.5C 227.664,114.187 227.497,116.854 227,119.5C 225.644,120.38 224.144,120.714 222.5,120.5C 221.87,118.25 220.87,116.25 219.5,114.5C 219.5,114.167 219.5,113.833 219.5,113.5C 219.274,110.751 219.607,108.084 220.5,105.5C 217.857,104.633 215.523,105.3 213.5,107.5C 214.602,104.064 216.936,102.064 220.5,101.5C 224.486,102.11 228.486,102.61 232.5,103C 235.215,103.875 236.548,105.708 236.5,108.5 Z"/></g>
<g><path style="opacity:1" fill="#ad7439" d="M 290.5,104.5 C 289.07,104.579 287.736,104.246 286.5,103.5C 285.478,103.855 284.811,104.522 284.5,105.5C 283.417,105.539 282.417,105.873 281.5,106.5C 278.941,104.818 276.107,103.818 273,103.5C 271.97,103.836 271.47,104.503 271.5,105.5C 271.5,107.5 271.5,109.5 271.5,111.5C 269.747,114.146 268.747,117.146 268.5,120.5C 264.19,121.08 259.857,121.414 255.5,121.5C 255.649,122.552 255.483,123.552 255,124.5C 252.444,121.288 250.944,117.622 250.5,113.5C 251.262,106.529 251.762,99.5289 252,92.5C 252.615,90.8839 253.615,89.5505 255,88.5C 258.407,88.8667 261.907,89.0334 265.5,89C 266.211,90.2547 267.044,91.4214 268,92.5C 267.165,99.8322 265.998,107.166 264.5,114.5C 265.822,114.67 266.989,114.337 268,113.5C 267.191,101.827 272.025,98.4933 282.5,103.5C 285.516,101.931 288.183,102.264 290.5,104.5 Z"/></g>
<g><path style="opacity:1" fill="#d6a36e" d="M 265.5,92.5 C 262.167,92.5 258.833,92.5 255.5,92.5C 255.5,96.1667 255.5,99.8333 255.5,103.5C 255.167,103.5 254.833,103.5 254.5,103.5C 254.5,99.5 254.5,95.5 254.5,91.5C 258.371,91.185 262.038,91.5184 265.5,92.5 Z"/></g>
<g><path style="opacity:1" fill="#fdf0d8" d="M 265.5,92.5 C 264.029,100.757 263.363,109.09 263.5,117.5C 261.389,118.742 259.389,118.742 257.5,117.5C 255.564,113.285 254.897,108.619 255.5,103.5C 255.5,99.8333 255.5,96.1667 255.5,92.5C 258.833,92.5 262.167,92.5 265.5,92.5 Z"/></g>
<g><path style="opacity:1" fill="#f1f5ef" d="M 257.5,117.5 C 257.237,110.27 257.237,102.937 257.5,95.5C 259.167,95.5 260.833,95.5 262.5,95.5C 261.962,102.822 261.629,110.155 261.5,117.5C 260.167,117.5 258.833,117.5 257.5,117.5 Z"/></g>
<g><path style="opacity:1" fill="#f7dfbc" d="M 284.5,105.5 C 286.898,105.259 288.898,105.926 290.5,107.5C 291.117,107.611 291.617,107.944 292,108.5C 292.251,113.501 292.084,118.501 291.5,123.5C 291.158,124.338 290.492,124.672 289.5,124.5C 287.236,123.781 284.903,123.448 282.5,123.5C 283.384,118.196 284.051,112.863 284.5,107.5C 282.61,107.297 281.11,107.963 280,109.5C 279.155,111.611 278.322,113.611 277.5,115.5C 277.26,112.421 277.593,109.421 278.5,106.5C 276.257,105.526 273.924,105.192 271.5,105.5C 271.47,104.503 271.97,103.836 273,103.5C 276.107,103.818 278.941,104.818 281.5,106.5C 282.417,105.873 283.417,105.539 284.5,105.5 Z"/></g>
<g><path style="opacity:1" fill="#faeacc" d="M 219.5,113.5 C 217.343,106.719 215.343,106.885 213.5,114C 214.196,116.558 215.529,118.725 217.5,120.5C 219.283,118.977 219.949,116.977 219.5,114.5C 220.87,116.25 221.87,118.25 222.5,120.5C 221.081,121.451 219.415,121.784 217.5,121.5C 213.083,119.725 211.083,116.392 211.5,111.5C 211.66,109.847 212.326,108.514 213.5,107.5C 215.523,105.3 217.857,104.633 220.5,105.5C 219.607,108.084 219.274,110.751 219.5,113.5 Z"/></g>
<g><path style="opacity:1" fill="#f7f3e9" d="M 271.5,105.5 C 273.924,105.192 276.257,105.526 278.5,106.5C 277.593,109.421 277.26,112.421 277.5,115.5C 277.5,116.833 277.5,118.167 277.5,119.5C 275.5,119.5 273.5,119.5 271.5,119.5C 271.16,116.856 271.827,114.523 273.5,112.5C 273.043,111.702 272.376,111.369 271.5,111.5C 271.5,109.5 271.5,107.5 271.5,105.5 Z"/></g>
<g><path style="opacity:1" fill="#fbdfb5" d="M 254.5,103.5 C 254.833,103.5 255.167,103.5 255.5,103.5C 254.897,108.619 255.564,113.285 257.5,117.5C 259.389,118.742 261.389,118.742 263.5,117.5C 260.663,119.402 257.329,120.069 253.5,119.5C 253.833,114.167 254.167,108.833 254.5,103.5 Z"/></g>
<g><path style="opacity:1" fill="#b86c22" d="M 223.5,105.5 C 224.478,107.664 225.478,109.83 226.5,112C 226.534,115.581 225.034,116.748 222,115.5C 221.333,112.5 221.333,109.5 222,106.5C 222.383,105.944 222.883,105.611 223.5,105.5 Z"/></g>
<g><path style="opacity:1" fill="#fcecd3" d="M 236.5,108.5 C 236.5,110.833 236.5,113.167 236.5,115.5C 235.033,118.29 232.7,119.956 229.5,120.5C 228.833,117.5 228.167,114.5 227.5,111.5C 227.167,109.5 226.833,107.5 226.5,105.5C 225.5,105.5 224.5,105.5 223.5,105.5C 223.97,104.307 224.97,103.64 226.5,103.5C 227.5,103.667 228.5,103.833 229.5,104C 232.502,104.561 234.835,106.061 236.5,108.5 Z"/></g>
<g><path style="opacity:1" fill="#f2f5f2" d="M 229.5,106.5 C 233.541,108.288 234.541,111.288 232.5,115.5C 231.675,116.386 230.675,116.719 229.5,116.5C 229.5,113.167 229.5,109.833 229.5,106.5 Z"/></g>
<g><path style="opacity:1" fill="#f7e5c0" d="M 271.5,111.5 C 272.376,111.369 273.043,111.702 273.5,112.5C 271.827,114.523 271.16,116.856 271.5,119.5C 273.5,119.5 275.5,119.5 277.5,119.5C 277.03,120.693 276.03,121.36 274.5,121.5C 272.488,121.16 270.488,120.827 268.5,120.5C 268.747,117.146 269.747,114.146 271.5,111.5 Z"/></g>
<g><path style="opacity:1" fill="#a1805a" d="M 306.5,112.5 C 309.167,114.833 311.833,117.167 314.5,119.5C 314.806,122.385 314.473,125.052 313.5,127.5C 313.784,125.585 313.451,123.919 312.5,122.5C 310.539,120.037 308.372,117.703 306,115.5C 305.26,114.251 305.427,113.251 306.5,112.5 Z"/></g>
<g><path style="opacity:1" fill="#f3f6ea" d="M 219.5,113.5 C 219.5,113.833 219.5,114.167 219.5,114.5C 219.949,116.977 219.283,118.977 217.5,120.5C 215.529,118.725 214.196,116.558 213.5,114C 215.343,106.885 217.343,106.719 219.5,113.5 Z"/></g>
<g><path style="opacity:1" fill="#f6f4eb" d="M 290.5,107.5 C 291.576,112.322 290.909,116.989 288.5,121.5C 286.157,122.996 284.824,122.329 284.5,119.5C 285.309,115.416 286.309,111.416 287.5,107.5C 288.5,107.5 289.5,107.5 290.5,107.5 Z"/></g>
<g><path style="opacity:1" fill="#fcdfae" d="M 306.5,112.5 C 306.5,112.167 306.5,111.833 306.5,111.5C 310.138,111.738 312.971,113.404 315,116.5C 315.74,117.749 315.573,118.749 314.5,119.5C 311.833,117.167 309.167,114.833 306.5,112.5 Z"/></g>
<g><path style="opacity:1" fill="#ac7334" d="M 289.5,124.5 C 289.719,125.675 289.386,126.675 288.5,127.5C 287.377,126.456 286.044,125.79 284.5,125.5C 279.851,124.85 275.184,124.35 270.5,124C 269.177,123.184 268.511,122.017 268.5,120.5C 270.488,120.827 272.488,121.16 274.5,121.5C 276.03,121.36 277.03,120.693 277.5,119.5C 277.5,118.167 277.5,116.833 277.5,115.5C 278.322,113.611 279.155,111.611 280,109.5C 281.11,107.963 282.61,107.297 284.5,107.5C 284.051,112.863 283.384,118.196 282.5,123.5C 284.903,123.448 287.236,123.781 289.5,124.5 Z"/></g>
<g><path style="opacity:1" fill="#a47643" d="M 290.5,104.5 C 292.672,105.661 294.006,107.495 294.5,110C 293.633,113.105 293.299,116.272 293.5,119.5C 295.933,119.727 297.599,118.727 298.5,116.5C 300.767,119.271 303.267,121.938 306,124.5C 306.91,126.945 306.076,128.278 303.5,128.5C 302.976,126.694 302.309,125.028 301.5,123.5C 300.393,121.031 298.393,120.031 295.5,120.5C 295.166,123.491 296.166,125.824 298.5,127.5C 297.041,127.567 295.708,127.234 294.5,126.5C 294.5,124.5 293.5,123.5 291.5,123.5C 292.084,118.501 292.251,113.501 292,108.5C 291.617,107.944 291.117,107.611 290.5,107.5C 288.898,105.926 286.898,105.259 284.5,105.5C 284.811,104.522 285.478,103.855 286.5,103.5C 287.736,104.246 289.07,104.579 290.5,104.5 Z"/></g>
<g><path style="opacity:1" fill="#e9c191" d="M 227.5,111.5 C 228.167,114.5 228.833,117.5 229.5,120.5C 225.598,122.489 221.598,122.823 217.5,121.5C 219.415,121.784 221.081,121.451 222.5,120.5C 224.144,120.714 225.644,120.38 227,119.5C 227.497,116.854 227.664,114.187 227.5,111.5 Z"/></g>
<g><path style="opacity:1" fill="#a57a50" d="M 335.5,117.5 C 335.635,119.554 334.968,121.221 333.5,122.5C 332.833,122.5 332.167,122.5 331.5,122.5C 330.527,122.013 329.527,121.513 328.5,121C 331.139,120.347 333.473,119.18 335.5,117.5 Z"/></g>
<g><path style="opacity:1" fill="#f9ebce" d="M 204.5,123.5 C 205.167,124.167 205.833,124.833 206.5,125.5C 204.205,127.385 201.538,127.885 198.5,127C 195.687,122.065 193.354,116.899 191.5,111.5C 192.166,108.972 192.832,106.306 193.5,103.5C 195.071,102.691 196.738,102.357 198.5,102.5C 198.662,104.527 198.495,106.527 198,108.5C 196.288,110.581 196.788,110.915 199.5,109.5C 201.476,114.08 203.143,118.746 204.5,123.5 Z"/></g>
<g><path style="opacity:1" fill="#f8e9c9" d="M 301.5,123.5 C 301.768,125.099 301.434,126.432 300.5,127.5C 299.833,127.5 299.167,127.5 298.5,127.5C 296.166,125.824 295.166,123.491 295.5,120.5C 298.393,120.031 300.393,121.031 301.5,123.5 Z"/></g>
<g><path style="opacity:1" fill="#b07f4a" d="M 335.5,115.5 C 333.742,115.123 332.075,114.456 330.5,113.5C 329.059,114.865 327.726,116.365 326.5,118C 325.552,118.483 324.552,118.649 323.5,118.5C 323.657,119.873 323.49,121.207 323,122.5C 322.098,124.431 320.931,126.097 319.5,127.5C 320.167,124.167 320.833,120.833 321.5,117.5C 322.978,117.762 324.311,117.429 325.5,116.5C 327.273,111.981 330.607,110.314 335.5,111.5C 335.5,112.833 335.5,114.167 335.5,115.5 Z"/></g>
<g><path style="opacity:1" fill="#f0bb82" d="M 331.5,122.5 C 332.167,122.5 332.833,122.5 333.5,122.5C 334.551,123.222 335.218,124.222 335.5,125.5C 333.958,124.699 332.292,124.366 330.5,124.5C 330.833,123.833 331.167,123.167 331.5,122.5 Z"/></g>
<g><path style="opacity:1" fill="#f8f3e4" d="M 300.5,111.5 C 300.833,111.5 301.167,111.5 301.5,111.5C 303.167,111.5 304.833,111.5 306.5,111.5C 306.5,111.833 306.5,112.167 306.5,112.5C 305.427,113.251 305.26,114.251 306,115.5C 308.372,117.703 310.539,120.037 312.5,122.5C 309.321,130.581 307.654,130.248 307.5,121.5C 305.165,120.587 302.999,119.253 301,117.5C 300.505,115.527 300.338,113.527 300.5,111.5 Z"/></g>
<g><path style="opacity:1" fill="#b07335" d="M 191.5,111.5 C 193.354,116.899 195.687,122.065 198.5,127C 201.538,127.885 204.205,127.385 206.5,125.5C 208.584,123.007 208.917,120.34 207.5,117.5C 207.5,115.5 207.5,113.5 207.5,111.5C 208.833,111.5 210.167,111.5 211.5,111.5C 211.083,116.392 213.083,119.725 217.5,121.5C 221.598,122.823 225.598,122.489 229.5,120.5C 232.7,119.956 235.033,118.29 236.5,115.5C 236.747,118.505 235.747,121.005 233.5,123C 225.404,124.853 217.404,124.686 209.5,122.5C 209.307,125.308 208.64,127.975 207.5,130.5C 202.167,130.5 196.833,130.5 191.5,130.5C 191.5,129.5 191.5,128.5 191.5,127.5C 192.117,127.389 192.617,127.056 193,126.5C 193.167,125.167 193.333,123.833 193.5,122.5C 193.294,119.664 192.627,116.998 191.5,114.5C 187.703,113.911 187.703,112.911 191.5,111.5 Z"/></g>
<g><path style="opacity:1" fill="#edb882" d="M 207.5,117.5 C 208.917,120.34 208.584,123.007 206.5,125.5C 205.833,124.833 205.167,124.167 204.5,123.5C 205.492,123.672 206.158,123.338 206.5,122.5C 207.451,121.081 207.784,119.415 207.5,117.5 Z"/></g>
<g><path style="opacity:1" fill="#f3f6f3" d="M 194.5,111.5 C 195.833,111.5 197.167,111.5 198.5,111.5C 198.973,114.697 199.639,117.863 200.5,121C 200.167,121.5 199.833,122 199.5,122.5C 196.101,119.64 194.434,115.974 194.5,111.5 Z"/></g>
<g><path style="opacity:1" fill="#ac763b" d="M 149.5,132.5 C 148.4,133.605 147.733,134.938 147.5,136.5C 146.732,137.263 146.232,138.263 146,139.5C 143.443,136.608 141.276,133.441 139.5,130C 136.311,130.31 133.645,131.81 131.5,134.5C 134.084,137.349 136.417,140.349 138.5,143.5C 136.019,141.977 133.519,140.31 131,138.5C 130.186,136.098 130.353,133.765 131.5,131.5C 133.496,129.768 135.662,128.434 138,127.5C 140.996,128.998 143.163,131.332 144.5,134.5C 145.85,133.05 147.516,132.383 149.5,132.5 Z"/></g>
<g><path style="opacity:1" fill="#e6b780" d="M 301.5,123.5 C 302.309,125.028 302.976,126.694 303.5,128.5C 303.5,128.833 303.5,129.167 303.5,129.5C 301.973,129.573 300.973,128.906 300.5,127.5C 301.434,126.432 301.768,125.099 301.5,123.5 Z"/></g>
<g><path style="opacity:1" fill="#f6e2c5" d="M 300.5,111.5 C 300.338,113.527 300.505,115.527 301,117.5C 302.999,119.253 305.165,120.587 307.5,121.5C 307.654,130.248 309.321,130.581 312.5,122.5C 313.451,123.919 313.784,125.585 313.5,127.5C 310.67,130.528 307.336,131.195 303.5,129.5C 303.5,129.167 303.5,128.833 303.5,128.5C 306.076,128.278 306.91,126.945 306,124.5C 303.267,121.938 300.767,119.271 298.5,116.5C 298.402,114.447 299.069,112.78 300.5,111.5 Z"/></g>
<g><path style="opacity:1" fill="#a6753c" d="M 357.5,143.5 C 357.654,139.975 356.321,137.141 353.5,135C 349.556,132.361 345.222,130.861 340.5,130.5C 340.286,132.144 340.62,133.644 341.5,135C 344.514,135.128 347.514,135.128 350.5,135C 351.582,137.306 350.748,138.806 348,139.5C 343.99,137.773 339.823,136.773 335.5,136.5C 336.172,135.733 337.005,135.066 338,134.5C 338.497,132.19 338.663,129.857 338.5,127.5C 346.193,128.596 352.693,131.929 358,137.5C 358.789,139.712 358.622,141.712 357.5,143.5 Z"/></g>
<g><path style="opacity:1" fill="#b07535" d="M 319.5,127.5 C 316.935,133.242 318.602,136.909 324.5,138.5C 326.506,133.822 328.506,129.156 330.5,124.5C 332.292,124.366 333.958,124.699 335.5,125.5C 334.448,127.256 332.781,127.923 330.5,127.5C 333.473,134.435 330.973,138.435 323,139.5C 320.761,138.909 318.594,138.242 316.5,137.5C 316.649,136.448 316.483,135.448 316,134.5C 315.667,134.833 315.333,135.167 315,135.5C 314.626,134.584 314.126,133.75 313.5,133C 307.479,131.925 301.479,131.258 295.5,131C 293.452,129.774 293.119,128.274 294.5,126.5C 295.708,127.234 297.041,127.567 298.5,127.5C 299.167,127.5 299.833,127.5 300.5,127.5C 300.973,128.906 301.973,129.573 303.5,129.5C 307.336,131.195 310.67,130.528 313.5,127.5C 314.473,125.052 314.806,122.385 314.5,119.5C 315.573,118.749 315.74,117.749 315,116.5C 312.971,113.404 310.138,111.738 306.5,111.5C 304.833,111.5 303.167,111.5 301.5,111.5C 301.5,110.5 301.5,109.5 301.5,108.5C 306.651,108.952 311.651,109.952 316.5,111.5C 316.5,116.833 316.5,122.167 316.5,127.5C 317.5,127.5 318.5,127.5 319.5,127.5 Z"/></g>
<g><path style="opacity:1" fill="#f4f5ec" d="M 168.5,122.5 C 170.241,126.547 171.574,130.88 172.5,135.5C 170.234,135.859 168.401,135.192 167,133.5C 166.253,130.076 166.42,126.743 167.5,123.5C 167.5,122.833 167.833,122.5 168.5,122.5 Z"/></g>
<g><path style="opacity:1" fill="#f8efdc" d="M 335.5,115.5 C 335.5,116.167 335.5,116.833 335.5,117.5C 333.473,119.18 331.139,120.347 328.5,121C 329.527,121.513 330.527,122.013 331.5,122.5C 331.167,123.167 330.833,123.833 330.5,124.5C 328.506,129.156 326.506,133.822 324.5,138.5C 318.602,136.909 316.935,133.242 319.5,127.5C 320.931,126.097 322.098,124.431 323,122.5C 323.49,121.207 323.657,119.873 323.5,118.5C 324.552,118.649 325.552,118.483 326.5,118C 327.726,116.365 329.059,114.865 330.5,113.5C 332.075,114.456 333.742,115.123 335.5,115.5 Z"/></g>
<g><path style="opacity:1" fill="#ac753b" d="M 191.5,127.5 C 189.716,128.574 188.549,130.24 188,132.5C 187.184,133.823 186.017,134.489 184.5,134.5C 189.319,129.608 189.652,124.441 185.5,119C 178.988,116.352 173.322,117.518 168.5,122.5C 167.833,122.5 167.5,122.833 167.5,123.5C 166.25,123.577 165.417,124.244 165,125.5C 164.183,128.964 164.517,132.298 166,135.5C 167.822,137.045 169.989,137.712 172.5,137.5C 175.197,137.297 177.864,136.964 180.5,136.5C 180.489,138.017 179.823,139.184 178.5,140C 174.083,140.228 169.75,140.728 165.5,141.5C 162.632,138.312 159.632,135.145 156.5,132C 154.115,131.444 151.782,131.61 149.5,132.5C 149.559,130.278 150.725,129.278 153,129.5C 155.449,129.861 157.782,130.528 160,131.5C 162.049,128.94 163.216,125.94 163.5,122.5C 166.515,120.329 169.515,118.162 172.5,116C 183.498,112.811 189.831,116.644 191.5,127.5 Z"/></g>
<g><path style="opacity:1" fill="#f9e8c8" d="M 184.5,134.5 C 182.938,134.733 181.605,135.4 180.5,136.5C 177.864,136.964 175.197,137.297 172.5,137.5C 169.989,137.712 167.822,137.045 166,135.5C 164.517,132.298 164.183,128.964 165,125.5C 165.417,124.244 166.25,123.577 167.5,123.5C 166.42,126.743 166.253,130.076 167,133.5C 168.401,135.192 170.234,135.859 172.5,135.5C 171.574,130.88 170.241,126.547 168.5,122.5C 173.322,117.518 178.988,116.352 185.5,119C 189.652,124.441 189.319,129.608 184.5,134.5 Z"/></g>
<g><path style="opacity:1" fill="#a77841" d="M 181.5,127.5 C 181.768,130.119 181.435,132.619 180.5,135C 179.167,135.667 177.833,135.667 176.5,135C 175.614,133.385 174.614,131.885 173.5,130.5C 175.167,130.5 176.833,130.5 178.5,130.5C 179.32,126.855 177.987,124.522 174.5,123.5C 173.534,125.396 173.201,127.396 173.5,129.5C 171.615,127.205 171.115,124.538 172,121.5C 173.868,120.328 175.702,120.495 177.5,122C 178.697,124.015 180.03,125.849 181.5,127.5 Z"/></g>
<g><path style="opacity:1" fill="#f2f6f0" d="M 181.5,127.5 C 180.943,125.051 180.943,122.718 181.5,120.5C 184.722,121.64 186.389,123.974 186.5,127.5C 186.167,128.5 185.5,129.167 184.5,129.5C 183.735,128.388 182.735,127.721 181.5,127.5 Z"/></g>
<g><path style="opacity:1" fill="#b56f1d" d="M 173.5,130.5 C 173.5,130.167 173.5,129.833 173.5,129.5C 173.201,127.396 173.534,125.396 174.5,123.5C 177.987,124.522 179.32,126.855 178.5,130.5C 176.833,130.5 175.167,130.5 173.5,130.5 Z"/></g>
<g><path style="opacity:1" fill="#f8efdc" d="M 147.5,136.5 C 148.14,142.024 150.474,146.857 154.5,151C 152.004,152.331 150.004,154.164 148.5,156.5C 144.925,152.347 141.591,148.014 138.5,143.5C 136.417,140.349 134.084,137.349 131.5,134.5C 133.645,131.81 136.311,130.31 139.5,130C 141.276,133.441 143.443,136.608 146,139.5C 146.232,138.263 146.732,137.263 147.5,136.5 Z"/></g>
<g><path style="opacity:1" fill="#f6f2e6" d="M 155.5,143.5 C 154.221,140.888 152.555,138.555 150.5,136.5C 151.191,134.978 152.358,133.978 154,133.5C 155.482,135.112 157.315,136.112 159.5,136.5C 159.543,139.088 160.543,141.254 162.5,143C 160.939,143.318 159.772,144.151 159,145.5C 158.184,144.177 157.017,143.511 155.5,143.5 Z"/></g>
<g><path style="opacity:1" fill="#f9e5c4" d="M 357.5,143.5 C 356.272,144.306 355.272,145.306 354.5,146.5C 356.207,143.245 355.54,140.579 352.5,138.5C 349.373,140.266 349.04,142.266 351.5,144.5C 348.176,145.159 346.843,147.159 347.5,150.5C 348.833,150.5 350.167,150.5 351.5,150.5C 351.585,151.995 350.919,152.995 349.5,153.5C 347.833,152.667 346.167,151.833 344.5,151C 343.663,149.989 343.33,148.822 343.5,147.5C 335.082,147.466 332.415,143.8 335.5,136.5C 339.823,136.773 343.99,137.773 348,139.5C 350.748,138.806 351.582,137.306 350.5,135C 347.514,135.128 344.514,135.128 341.5,135C 340.62,133.644 340.286,132.144 340.5,130.5C 345.222,130.861 349.556,132.361 353.5,135C 356.321,137.141 357.654,139.975 357.5,143.5 Z"/></g>
<g><path style="opacity:1" fill="#fae6c7" d="M 165.5,141.5 C 165.5,142.167 165.5,142.833 165.5,143.5C 162.925,144.568 160.758,146.235 159,148.5C 157.331,147.154 156.164,145.487 155.5,143.5C 157.017,143.511 158.184,144.177 159,145.5C 159.772,144.151 160.939,143.318 162.5,143C 160.543,141.254 159.543,139.088 159.5,136.5C 157.315,136.112 155.482,135.112 154,133.5C 152.358,133.978 151.191,134.978 150.5,136.5C 149.5,136.5 148.5,136.5 147.5,136.5C 147.733,134.938 148.4,133.605 149.5,132.5C 151.782,131.61 154.115,131.444 156.5,132C 159.632,135.145 162.632,138.312 165.5,141.5 Z"/></g>
<g><path style="opacity:1" fill="#f9f2ec" d="M 341.5,141.5 C 341.5,142.167 341.5,142.833 341.5,143.5C 339.5,143.5 337.5,143.5 335.5,143.5C 335.5,142.167 335.5,140.833 335.5,139.5C 338.082,139.025 340.082,139.692 341.5,141.5 Z"/></g>
<g><path style="opacity:1" fill="#a08059" d="M 341.5,143.5 C 341.5,142.833 341.5,142.167 341.5,141.5C 349.32,139.187 350.32,140.687 344.5,146C 343.552,146.483 342.552,146.649 341.5,146.5C 341.5,145.5 341.5,144.5 341.5,143.5 Z"/></g>
<g><path style="opacity:1" fill="#ab753e" d="M 147.5,136.5 C 148.5,136.5 149.5,136.5 150.5,136.5C 152.555,138.555 154.221,140.888 155.5,143.5C 156.164,145.487 157.331,147.154 159,148.5C 160.758,146.235 162.925,144.568 165.5,143.5C 166.801,144.884 166.801,146.384 165.5,148C 163.579,148.36 161.912,149.194 160.5,150.5C 159.232,149.572 157.899,149.405 156.5,150C 155.416,154.261 152.749,156.428 148.5,156.5C 150.004,154.164 152.004,152.331 154.5,151C 150.474,146.857 148.14,142.024 147.5,136.5 Z"/></g>
<g><path style="opacity:1" fill="#f1f5ed" d="M 354.5,146.5 C 353.488,147.872 352.488,149.205 351.5,150.5C 350.167,150.5 348.833,150.5 347.5,150.5C 346.843,147.159 348.176,145.159 351.5,144.5C 349.04,142.266 349.373,140.266 352.5,138.5C 355.54,140.579 356.207,143.245 354.5,146.5 Z"/></g>
<g><path style="opacity:1" fill="#e9b983" d="M 117.5,147.5 C 117.5,148.167 117.5,148.833 117.5,149.5C 117.167,150.5 116.5,151.167 115.5,151.5C 114.833,151.5 114.167,151.5 113.5,151.5C 114.833,150.167 116.167,148.833 117.5,147.5 Z"/></g>
<g><path style="opacity:1" fill="#ab753b" d="M 117.5,149.5 C 123.505,150.171 126.172,153.505 125.5,159.5C 123.067,159.727 121.401,158.727 120.5,156.5C 123.593,157.554 124.26,156.388 122.5,153C 121.552,152.517 120.552,152.351 119.5,152.5C 119.5,153.5 119.5,154.5 119.5,155.5C 117.833,154.5 116.5,153.167 115.5,151.5C 116.5,151.167 117.167,150.5 117.5,149.5 Z"/></g>
<g><path style="opacity:1" fill="#b07438" d="M 335.5,136.5 C 332.415,143.8 335.082,147.466 343.5,147.5C 343.33,148.822 343.663,149.989 344.5,151C 346.167,151.833 347.833,152.667 349.5,153.5C 350.919,152.995 351.585,151.995 351.5,150.5C 352.488,149.205 353.488,147.872 354.5,146.5C 355.272,145.306 356.272,144.306 357.5,143.5C 357.66,145.199 357.494,146.866 357,148.5C 355.341,149.817 354.174,151.483 353.5,153.5C 354.005,154.919 355.005,155.585 356.5,155.5C 355.602,156.158 354.602,156.824 353.5,157.5C 355.289,158.247 356.956,157.914 358.5,156.5C 359.497,156.47 360.164,156.97 360.5,158C 358.279,163.294 359.946,166.794 365.5,168.5C 366.958,165.151 368.292,161.818 369.5,158.5C 370.833,158.5 372.167,158.5 373.5,158.5C 374.067,159.42 373.401,159.754 371.5,159.5C 371.66,161.199 371.494,162.866 371,164.5C 368.946,166.058 367.446,168.058 366.5,170.5C 360.903,168.907 357.903,165.24 357.5,159.5C 356.167,159.5 354.833,159.5 353.5,159.5C 353.509,161.308 353.009,162.975 352,164.5C 351.502,161.518 351.335,158.518 351.5,155.5C 348.784,155.322 346.117,154.822 343.5,154C 341.845,152.556 341.178,150.722 341.5,148.5C 333.01,150.029 329.843,146.696 332,138.5C 332.816,137.177 333.983,136.511 335.5,136.5 Z"/></g>
<g><path style="opacity:1" fill="#edb273" d="M 356.5,155.5 C 357.167,155.5 357.833,155.5 358.5,155.5C 358.5,155.833 358.5,156.167 358.5,156.5C 356.956,157.914 355.289,158.247 353.5,157.5C 354.602,156.824 355.602,156.158 356.5,155.5 Z"/></g>
<g><path style="opacity:1" fill="#b28a60" d="M 367.5,147.5 C 368.583,147.539 369.583,147.873 370.5,148.5C 371.484,151.428 371.817,154.428 371.5,157.5C 370.833,157.5 370.167,157.5 369.5,157.5C 371.355,153.598 370.689,150.264 367.5,147.5 Z"/></g>
<g><path style="opacity:1" fill="#f7c288" d="M 373.5,158.5 C 372.167,158.5 370.833,158.5 369.5,158.5C 369.5,158.167 369.5,157.833 369.5,157.5C 370.167,157.5 370.833,157.5 371.5,157.5C 373.068,156.527 374.735,156.36 376.5,157C 375.263,157.232 374.263,157.732 373.5,158.5 Z"/></g>
<g><path style="opacity:1" fill="#f8efdd" d="M 367.5,147.5 C 370.689,150.264 371.355,153.598 369.5,157.5C 369.5,157.833 369.5,158.167 369.5,158.5C 368.292,161.818 366.958,165.151 365.5,168.5C 359.946,166.794 358.279,163.294 360.5,158C 360.164,156.97 359.497,156.47 358.5,156.5C 358.5,156.167 358.5,155.833 358.5,155.5C 359.87,155.144 360.87,154.31 361.5,153C 362.207,149.8 363.04,146.633 364,143.5C 365.376,144.705 366.542,146.038 367.5,147.5 Z"/></g>
<g><path style="opacity:1" fill="#f8ebd3" d="M 128.5,143.5 C 131.303,146.204 132.137,149.537 131,153.5C 128.971,156.029 127.138,158.696 125.5,161.5C 128.052,164.549 130.719,167.382 133.5,170C 131.649,171.683 129.983,173.516 128.5,175.5C 127.5,176.833 126.5,176.833 125.5,175.5C 125.5,175.167 125.5,174.833 125.5,174.5C 119.07,169.575 113.07,164.075 107.5,158C 109.464,156.549 110.797,154.716 111.5,152.5C 112.492,152.672 113.158,152.338 113.5,151.5C 114.167,151.5 114.833,151.5 115.5,151.5C 116.5,153.167 117.833,154.5 119.5,155.5C 119.5,156.167 119.833,156.5 120.5,156.5C 121.401,158.727 123.067,159.727 125.5,159.5C 126.172,153.505 123.505,150.171 117.5,149.5C 117.5,148.833 117.5,148.167 117.5,147.5C 120.405,144.22 124.071,142.887 128.5,143.5 Z"/></g>
<g><path style="opacity:1" fill="#f3f4f1" d="M 125.5,174.5 C 125.762,173.022 125.429,171.689 124.5,170.5C 119.41,167.005 115.743,162.338 113.5,156.5C 115.886,155.471 117.886,156.137 119.5,158.5C 120.473,163.473 123.473,166.473 128.5,167.5C 129.9,170.832 128.9,173.165 125.5,174.5 Z"/></g>
<g><path style="opacity:1" fill="#b96b20" d="M 120.5,156.5 C 119.833,156.5 119.5,156.167 119.5,155.5C 119.5,154.5 119.5,153.5 119.5,152.5C 120.552,152.351 121.552,152.517 122.5,153C 124.26,156.388 123.593,157.554 120.5,156.5 Z"/></g>
<g><path style="opacity:1" fill="#f6f5e9" d="M 125.5,144.5 C 128.892,145.99 130.226,148.657 129.5,152.5C 126.434,152.276 123.934,150.943 122,148.5C 121.333,147.833 121.333,147.167 122,146.5C 123.302,145.915 124.469,145.249 125.5,144.5 Z"/></g>
<g><path style="opacity:1" fill="#ab773e" d="M 111.5,152.5 C 110.797,154.716 109.464,156.549 107.5,158C 113.07,164.075 119.07,169.575 125.5,174.5C 125.5,174.833 125.5,175.167 125.5,175.5C 122.976,174.178 120.31,173.012 117.5,172C 115.609,167.961 112.442,165.461 108,164.5C 106.325,160.915 106.158,157.248 107.5,153.5C 108.736,152.754 110.07,152.421 111.5,152.5 Z"/></g>
<g><path style="opacity:1" fill="#ae7941" d="M 128.5,143.5 C 129.833,143.5 131.167,143.5 132.5,143.5C 134.619,149.81 133.619,155.477 129.5,160.5C 131.108,163.772 133.108,166.772 135.5,169.5C 134.2,172.658 131.867,174.658 128.5,175.5C 129.983,173.516 131.649,171.683 133.5,170C 130.719,167.382 128.052,164.549 125.5,161.5C 127.138,158.696 128.971,156.029 131,153.5C 132.137,149.537 131.303,146.204 128.5,143.5 Z"/></g>
<g><path style="opacity:1" fill="#a86f33" d="M 319.5,191.5 C 317.167,190.167 314.833,188.833 312.5,187.5C 270.002,186.335 227.335,186.169 184.5,187C 183.944,187.383 183.611,187.883 183.5,188.5C 181.413,189.585 180.08,191.251 179.5,193.5C 179.167,193.5 178.833,193.5 178.5,193.5C 177.959,190.348 178.959,187.848 181.5,186C 225.5,185.333 269.5,185.333 313.5,186C 315.436,186.813 317.436,187.313 319.5,187.5C 319.5,188.833 319.5,190.167 319.5,191.5 Z"/></g>
<g><path style="opacity:1" fill="#a17546" d="M 312.5,187.5 C 269.457,187.178 226.457,187.511 183.5,188.5C 183.611,187.883 183.944,187.383 184.5,187C 227.335,186.169 270.002,186.335 312.5,187.5 Z"/></g>
<g><path style="opacity:1" fill="#b27f48" d="M 319.5,195.5 C 320.324,199.312 320.824,203.312 321,207.5C 320.982,236.902 321.815,266.236 323.5,295.5C 323.448,300.548 323.114,305.548 322.5,310.5C 320.621,311.341 318.621,311.675 316.5,311.5C 316.5,311.167 316.5,310.833 316.5,310.5C 318.027,310.573 319.027,309.906 319.5,308.5C 320.79,307.942 321.623,306.942 322,305.5C 322.667,298.167 322.667,290.833 322,283.5C 321.292,282.619 320.458,281.953 319.5,281.5C 319.5,276.833 319.5,272.167 319.5,267.5C 319.5,243.5 319.5,219.5 319.5,195.5 Z"/></g>
<g><path style="opacity:1" fill="#b0702e" d="M 319.5,191.5 C 320.833,191.5 322.167,191.5 323.5,191.5C 323.333,221.169 323.5,250.835 324,280.5C 325.112,285.223 325.612,290.056 325.5,295C 325.333,299.167 325.167,303.333 325,307.5C 324.623,308.942 323.79,309.942 322.5,310.5C 323.114,305.548 323.448,300.548 323.5,295.5C 321.815,266.236 320.982,236.902 321,207.5C 320.824,203.312 320.324,199.312 319.5,195.5C 319.5,194.167 319.5,192.833 319.5,191.5 Z"/></g>
<g><path style="opacity:1" fill="#ac712b" d="M 177.5,194.5 C 177.5,221.167 177.5,247.833 177.5,274.5C 176.522,271.197 175.855,267.697 175.5,264C 175.522,242.159 175.522,220.326 175.5,198.5C 175.668,196.829 176.335,195.496 177.5,194.5 Z"/></g>
<g><path style="opacity:1" fill="#ac7944" d="M 105.5,242.5 C 105.5,246.167 105.5,249.833 105.5,253.5C 104.292,252.766 102.959,252.433 101.5,252.5C 102.385,248.189 100.885,247.523 97,250.5C 95.2676,250.266 94.4342,249.266 94.5,247.5C 94.4528,246 95.1195,245 96.5,244.5C 97.8415,246.005 99.5082,246.672 101.5,246.5C 99.7273,241.308 96.5606,240.308 92,243.5C 89.0857,252.375 91.919,255.375 100.5,252.5C 100.5,253.5 100.5,254.5 100.5,255.5C 93.514,257.088 89.514,254.421 88.5,247.5C 90.0538,245.056 91.0538,242.389 91.5,239.5C 94.5,240.833 97.5,240.833 100.5,239.5C 100.873,242.849 102.54,243.849 105.5,242.5 Z"/></g>
<g><path style="opacity:1" fill="#d3ad7e" d="M 393.5,241.5 C 393.5,242.833 393.5,244.167 393.5,245.5C 392.5,245.5 391.5,245.5 390.5,245.5C 391.091,244.849 391.757,244.182 392.5,243.5C 389.833,242.167 387.167,242.167 384.5,243.5C 385.243,244.182 385.909,244.849 386.5,245.5C 386.167,245.5 385.833,245.5 385.5,245.5C 383.824,244.817 383.157,243.483 383.5,241.5C 386.833,241.5 390.167,241.5 393.5,241.5 Z"/></g>
<g><path style="opacity:1" fill="#a37240" d="M 178.5,193.5 C 178.667,222.835 178.5,252.169 178,281.5C 177.292,282.381 176.458,283.047 175.5,283.5C 177.123,280.785 177.79,277.785 177.5,274.5C 177.5,247.833 177.5,221.167 177.5,194.5C 177.5,193.833 177.833,193.5 178.5,193.5 Z"/></g>
<g><path style="opacity:1" fill="#b69062" d="M 378.5,242.5 C 376.143,242.337 373.81,242.503 371.5,243C 370.934,243.995 370.267,244.828 369.5,245.5C 369.33,244.178 369.663,243.011 370.5,242C 373.367,241.199 376.034,241.366 378.5,242.5 Z"/></g>
<g><path style="opacity:1" fill="#aa7841" d="M 399.5,241.5 C 409.121,239.141 412.121,242.808 408.5,252.5C 407.583,253.127 406.583,253.461 405.5,253.5C 407.463,250.482 407.963,247.149 407,243.5C 404.772,241.887 402.272,241.22 399.5,241.5 Z"/></g>
<g><path style="opacity:1" fill="#f7ddbc" d="M 140.5,241.5 C 141.833,241.5 143.167,241.5 144.5,241.5C 144.351,242.552 144.517,243.552 145,244.5C 146.678,242.447 148.511,242.113 150.5,243.5C 149.167,244.167 148.167,245.167 147.5,246.5C 145.418,246.376 143.918,245.376 143,243.5C 142.713,245.891 142.213,248.224 141.5,250.5C 142.425,251.562 143.425,251.562 144.5,250.5C 144.5,251.5 144.5,252.5 144.5,253.5C 143.167,253.5 141.833,253.5 140.5,253.5C 140.5,249.5 140.5,245.5 140.5,241.5 Z"/></g>
<g><path style="opacity:1" fill="#fbebc8" d="M 351.5,242.5 C 354.703,247.016 353.37,249.349 347.5,249.5C 347.5,250.833 347.5,252.167 347.5,253.5C 346.5,253.5 345.5,253.5 344.5,253.5C 344.5,249.833 344.5,246.167 344.5,242.5C 346.833,242.5 349.167,242.5 351.5,242.5 Z"/></g>
<g><path style="opacity:1" fill="#867d66" d="M 347.5,244.5 C 349.465,244.948 349.798,245.948 348.5,247.5C 347.614,246.675 347.281,245.675 347.5,244.5 Z"/></g>
<g><path style="opacity:1" fill="#d8b182" d="M 343.5,241.5 C 346.385,241.194 349.052,241.527 351.5,242.5C 349.167,242.5 346.833,242.5 344.5,242.5C 344.5,246.167 344.5,249.833 344.5,253.5C 343.517,249.702 343.183,245.702 343.5,241.5 Z"/></g>
<g><path style="opacity:1" fill="#a7763e" d="M 356.5,242.5 C 356.5,243.167 356.5,243.833 356.5,244.5C 356.5,246.5 356.5,248.5 356.5,250.5C 356.5,251.167 356.5,251.833 356.5,252.5C 354.624,249.825 353.124,250.158 352,253.5C 350.701,253.034 349.201,253.034 347.5,253.5C 347.5,252.167 347.5,250.833 347.5,249.5C 353.37,249.349 354.703,247.016 351.5,242.5C 349.052,241.527 346.385,241.194 343.5,241.5C 346.337,239.598 349.671,238.931 353.5,239.5C 353.5,240.5 353.5,241.5 353.5,242.5C 354.5,242.5 355.5,242.5 356.5,242.5 Z"/></g>
<g><path style="opacity:1" fill="#faeecf" d="M 356.5,250.5 C 356.5,248.5 356.5,246.5 356.5,244.5C 357.15,244.196 357.817,243.863 358.5,243.5C 360.894,246.431 360.894,249.431 358.5,252.5C 357.818,251.757 357.151,251.091 356.5,250.5 Z"/></g>
<g><path style="opacity:1" fill="#e1c198" d="M 363.5,242.5 C 363.672,244.492 363.005,246.158 361.5,247.5C 362.243,248.182 362.909,248.849 363.5,249.5C 362.5,249.5 361.5,249.5 360.5,249.5C 360.5,250.833 360.5,252.167 360.5,253.5C 358.901,253.768 357.568,253.434 356.5,252.5C 356.5,251.833 356.5,251.167 356.5,250.5C 357.151,251.091 357.818,251.757 358.5,252.5C 360.894,249.431 360.894,246.431 358.5,243.5C 357.817,243.863 357.15,244.196 356.5,244.5C 356.5,243.833 356.5,243.167 356.5,242.5C 357.568,241.566 358.901,241.232 360.5,241.5C 360.67,246.275 361.67,246.608 363.5,242.5 Z"/></g>
<g><path style="opacity:1" fill="#fbedcf" d="M 105.5,242.5 C 107.924,242.192 110.257,242.526 112.5,243.5C 111.167,244.167 109.833,244.833 108.5,245.5C 112.5,246.833 112.5,248.167 108.5,249.5C 109.689,250.429 111.022,250.762 112.5,250.5C 112.737,251.791 112.404,252.791 111.5,253.5C 109.5,253.5 107.5,253.5 105.5,253.5C 105.5,249.833 105.5,246.167 105.5,242.5 Z"/></g>
<g><path style="opacity:1" fill="#b0814e" d="M 105.5,242.5 C 108.698,241.3 112.031,241.3 115.5,242.5C 115.782,243.778 116.449,244.778 117.5,245.5C 116.167,245.5 114.833,245.5 113.5,245.5C 114.599,248.844 114.265,252.177 112.5,255.5C 111.702,255.043 111.369,254.376 111.5,253.5C 112.404,252.791 112.737,251.791 112.5,250.5C 111.022,250.762 109.689,250.429 108.5,249.5C 112.5,248.167 112.5,246.833 108.5,245.5C 109.833,244.833 111.167,244.167 112.5,243.5C 110.257,242.526 107.924,242.192 105.5,242.5 Z"/></g>
<g><path style="opacity:1" fill="#f8e2bd" d="M 101.5,252.5 C 101.167,252.5 100.833,252.5 100.5,252.5C 91.919,255.375 89.0857,252.375 92,243.5C 96.5606,240.308 99.7273,241.308 101.5,246.5C 99.5082,246.672 97.8415,246.005 96.5,244.5C 95.1195,245 94.4528,246 94.5,247.5C 94.4342,249.266 95.2676,250.266 97,250.5C 100.885,247.523 102.385,248.189 101.5,252.5 Z"/></g>
<g><path style="opacity:1" fill="#f5e4c1" d="M 115.5,242.5 C 118.572,242.183 121.572,242.516 124.5,243.5C 123.675,244.386 122.675,244.719 121.5,244.5C 121.5,247.5 121.5,250.5 121.5,253.5C 120.167,253.5 118.833,253.5 117.5,253.5C 117.5,250.833 117.5,248.167 117.5,245.5C 116.449,244.778 115.782,243.778 115.5,242.5 Z"/></g>
<g><path style="opacity:1" fill="#fcedd4" d="M 390.5,245.5 C 390.5,248.167 390.5,250.833 390.5,253.5C 389.5,253.5 388.5,253.5 387.5,253.5C 387.806,250.615 387.473,247.948 386.5,245.5C 385.909,244.849 385.243,244.182 384.5,243.5C 387.167,242.167 389.833,242.167 392.5,243.5C 391.757,244.182 391.091,244.849 390.5,245.5 Z"/></g>
<g><path style="opacity:1" fill="#f4e8cf" d="M 399.5,241.5 C 402.272,241.22 404.772,241.887 407,243.5C 407.963,247.149 407.463,250.482 405.5,253.5C 397.437,254.604 394.603,251.27 397,243.5C 397.995,242.934 398.828,242.267 399.5,241.5 Z"/></g>
<g><path style="opacity:1" fill="#a97748" d="M 400.5,244.5 C 404.068,244.759 405.401,246.759 404.5,250.5C 400.143,250.444 398.809,248.444 400.5,244.5 Z"/></g>
<g><path style="opacity:1" fill="#f5ead3" d="M 378.5,242.5 C 379.778,242.782 380.778,243.449 381.5,244.5C 382.075,248.155 381.075,251.155 378.5,253.5C 371.722,255.055 368.722,252.388 369.5,245.5C 370.267,244.828 370.934,243.995 371.5,243C 373.81,242.503 376.143,242.337 378.5,242.5 Z"/></g>
<g><path style="opacity:1" fill="#b17b46" d="M 373.5,244.5 C 378.159,244.015 379.492,245.848 377.5,250C 376.207,250.49 374.873,250.657 373.5,250.5C 373.5,248.5 373.5,246.5 373.5,244.5 Z"/></g>
<g><path style="opacity:1" fill="#fbeccc" d="M 365.5,253.5 C 363.824,252.817 363.157,251.483 363.5,249.5C 362.909,248.849 362.243,248.182 361.5,247.5C 363.005,246.158 363.672,244.492 363.5,242.5C 364.209,241.596 365.209,241.263 366.5,241.5C 366.817,245.702 366.483,249.702 365.5,253.5 Z"/></g>
<g><path style="opacity:1" fill="#ab7b45" d="M 140.5,241.5 C 140.5,245.5 140.5,249.5 140.5,253.5C 141.833,253.5 143.167,253.5 144.5,253.5C 144.5,252.5 144.5,251.5 144.5,250.5C 144.5,249.833 144.833,249.5 145.5,249.5C 145.864,252.845 147.531,253.845 150.5,252.5C 149.725,250.604 148.725,248.937 147.5,247.5C 147.5,247.167 147.5,246.833 147.5,246.5C 148.167,245.167 149.167,244.167 150.5,243.5C 150.333,247.67 151,251.67 152.5,255.5C 147.766,254.983 143.1,254.983 138.5,255.5C 137.478,255.145 136.811,254.478 136.5,253.5C 137.124,253.083 137.457,252.416 137.5,251.5C 136.672,248.521 136.005,245.521 135.5,242.5C 133.5,242.5 131.5,242.5 129.5,242.5C 129.405,244.786 128.738,246.786 127.5,248.5C 127.5,247.5 127.5,246.5 127.5,245.5C 125.856,245.286 124.356,245.62 123,246.5C 122.814,249.036 122.314,251.369 121.5,253.5C 121.5,250.5 121.5,247.5 121.5,244.5C 122.675,244.719 123.675,244.386 124.5,243.5C 121.572,242.516 118.572,242.183 115.5,242.5C 121.131,241.989 126.798,240.989 132.5,239.5C 134.5,240.833 136.5,242.167 138.5,243.5C 139.182,242.757 139.849,242.091 140.5,241.5 Z"/></g>
<g><path style="opacity:1" fill="#f6e5cb" d="M 136.5,253.5 C 135.833,253.5 135.167,253.5 134.5,253.5C 134.38,252.414 133.713,251.747 132.5,251.5C 131.287,251.747 130.62,252.414 130.5,253.5C 129.5,253.5 128.5,253.5 127.5,253.5C 127.5,251.833 127.5,250.167 127.5,248.5C 128.738,246.786 129.405,244.786 129.5,242.5C 131.5,242.5 133.5,242.5 135.5,242.5C 136.005,245.521 136.672,248.521 137.5,251.5C 137.457,252.416 137.124,253.083 136.5,253.5 Z"/></g>
<g><path style="opacity:1" fill="#9d7c48" d="M 134.5,253.5 C 133.167,253.5 131.833,253.5 130.5,253.5C 130.62,252.414 131.287,251.747 132.5,251.5C 133.713,251.747 134.38,252.414 134.5,253.5 Z"/></g>
<g><path style="opacity:1" fill="#f9e2bc" d="M 147.5,247.5 C 148.725,248.937 149.725,250.604 150.5,252.5C 147.531,253.845 145.864,252.845 145.5,249.5C 146.833,249.5 147.5,248.833 147.5,247.5 Z"/></g>
<g><path style="opacity:1" fill="#f9f0e6" d="M 147.5,246.5 C 147.5,246.833 147.5,247.167 147.5,247.5C 147.5,248.833 146.833,249.5 145.5,249.5C 144.833,249.5 144.5,249.833 144.5,250.5C 143.425,251.562 142.425,251.562 141.5,250.5C 142.213,248.224 142.713,245.891 143,243.5C 143.918,245.376 145.418,246.376 147.5,246.5 Z"/></g>
<g><path style="opacity:1" fill="#ae7638" d="M 393.5,241.5 C 395.5,241.5 397.5,241.5 399.5,241.5C 398.828,242.267 397.995,242.934 397,243.5C 394.603,251.27 397.437,254.604 405.5,253.5C 402.77,254.817 399.937,254.817 397,253.5C 396,254.167 395,254.833 394,255.5C 390.198,254.194 386.365,254.194 382.5,255.5C 381.378,254.37 380.044,253.703 378.5,253.5C 381.075,251.155 382.075,248.155 381.5,244.5C 382.319,247.305 382.819,250.305 383,253.5C 384.61,251.061 385.444,248.394 385.5,245.5C 385.833,245.5 386.167,245.5 386.5,245.5C 387.473,247.948 387.806,250.615 387.5,253.5C 388.5,253.5 389.5,253.5 390.5,253.5C 390.5,250.833 390.5,248.167 390.5,245.5C 391.5,245.5 392.5,245.5 393.5,245.5C 393.5,244.167 393.5,242.833 393.5,241.5 Z"/></g>
<g><path style="opacity:1" fill="#a67541" d="M 363.5,249.5 C 363.157,251.483 363.824,252.817 365.5,253.5C 365.53,254.497 365.03,255.164 364,255.5C 362.697,255.022 361.531,254.355 360.5,253.5C 360.5,252.167 360.5,250.833 360.5,249.5C 361.5,249.5 362.5,249.5 363.5,249.5 Z"/></g>
<g><path style="opacity:1" fill="#e7c6a3" d="M 178.5,193.5 C 178.833,193.5 179.167,193.5 179.5,193.5C 179.667,223.169 179.5,252.835 179,282.5C 178.333,283.167 177.667,283.833 177,284.5C 176.5,291.492 176.334,298.492 176.5,305.5C 176.167,305.5 175.833,305.5 175.5,305.5C 175.5,298.167 175.5,290.833 175.5,283.5C 176.458,283.047 177.292,282.381 178,281.5C 178.5,252.169 178.667,222.835 178.5,193.5 Z"/></g>
<g><path style="opacity:1" fill="#f7f2e4" d="M 313.5,267.5 C 313.833,267.5 314.167,267.5 314.5,267.5C 316.167,267.5 317.833,267.5 319.5,267.5C 319.5,272.167 319.5,276.833 319.5,281.5C 319.5,282.833 319.5,284.167 319.5,285.5C 318.5,285.5 317.5,285.5 316.5,285.5C 315.833,285.167 315.167,284.833 314.5,284.5C 273.003,283.501 231.337,283.168 189.5,283.5C 189.5,282.5 189.5,281.5 189.5,280.5C 200.838,280.667 212.172,280.5 223.5,280C 224.252,279.329 224.586,278.496 224.5,277.5C 224.833,277.5 225.167,277.5 225.5,277.5C 226.461,275.735 226.795,273.735 226.5,271.5C 214.149,271.832 201.815,271.499 189.5,270.5C 206.153,269.501 222.82,269.167 239.5,269.5C 239.5,270.5 239.5,271.5 239.5,272.5C 237.874,272.062 236.207,271.728 234.5,271.5C 232.97,271.64 231.97,272.307 231.5,273.5C 231.5,274.833 231.5,276.167 231.5,277.5C 230.957,277.56 230.624,277.893 230.5,278.5C 242.815,279.499 255.149,279.832 267.5,279.5C 267.795,277.265 267.461,275.265 266.5,273.5C 266.5,273.167 266.5,272.833 266.5,272.5C 258.303,271.79 249.97,270.956 241.5,270C 245.178,269.582 248.845,269.082 252.5,268.5C 272.149,269.631 291.816,269.797 311.5,269C 312.416,268.722 313.082,268.222 313.5,267.5 Z"/></g>
<g><path style="opacity:1" fill="#d4af85" d="M 266.5,273.5 C 267.461,275.265 267.795,277.265 267.5,279.5C 255.149,279.832 242.815,279.499 230.5,278.5C 230.624,277.893 230.957,277.56 231.5,277.5C 231.842,278.338 232.508,278.672 233.5,278.5C 243.5,278.5 253.5,278.5 263.5,278.5C 264.5,278.5 265.5,278.5 266.5,278.5C 266.5,276.833 266.5,275.167 266.5,273.5 Z"/></g>
<g><path style="opacity:1" fill="#ad8154" d="M 272.5,273.5 C 286.167,273.5 299.833,273.5 313.5,273.5C 313.5,275.5 313.5,277.5 313.5,279.5C 301.495,279.667 289.495,279.5 277.5,279C 274.348,278.536 272.682,276.703 272.5,273.5 Z"/></g>
<g><path style="opacity:1" fill="#ad7030" d="M 276.5,274.5 C 288.186,274.168 299.852,274.501 311.5,275.5C 311.709,276.086 312.043,276.586 312.5,277C 301.239,278.6 289.906,278.933 278.5,278C 275.81,277.665 275.143,276.499 276.5,274.5 Z"/></g>
<g><path style="opacity:1" fill="#9f7040" d="M 231.5,273.5 C 243.167,273.5 254.833,273.5 266.5,273.5C 266.5,275.167 266.5,276.833 266.5,278.5C 265.5,278.5 264.5,278.5 263.5,278.5C 266.039,277.093 265.706,275.927 262.5,275C 252.814,274.342 243.148,274.508 233.5,275.5C 233.5,276.5 233.5,277.5 233.5,278.5C 232.508,278.672 231.842,278.338 231.5,277.5C 231.5,276.167 231.5,274.833 231.5,273.5 Z"/></g>
<g><path style="opacity:1" fill="#af6f2b" d="M 263.5,278.5 C 253.5,278.5 243.5,278.5 233.5,278.5C 233.5,277.5 233.5,276.5 233.5,275.5C 243.148,274.508 252.814,274.342 262.5,275C 265.706,275.927 266.039,277.093 263.5,278.5 Z"/></g>
<g><path style="opacity:1" fill="#f3d6b5" d="M 239.5,272.5 C 248.5,272.5 257.5,272.5 266.5,272.5C 266.5,272.833 266.5,273.167 266.5,273.5C 254.833,273.5 243.167,273.5 231.5,273.5C 231.97,272.307 232.97,271.64 234.5,271.5C 236.207,271.728 237.874,272.062 239.5,272.5 Z"/></g>
<g><path style="opacity:1" fill="#fbf1dc" d="M 312.5,187.5 C 314.833,188.833 317.167,190.167 319.5,191.5C 319.5,192.833 319.5,194.167 319.5,195.5C 319.5,219.5 319.5,243.5 319.5,267.5C 317.833,267.5 316.167,267.5 314.5,267.5C 314.831,242.994 314.498,218.661 313.5,194.5C 312.89,193.609 312.557,192.609 312.5,191.5C 312.389,190.883 312.056,190.383 311.5,190C 269.496,189.167 227.496,189.333 185.5,190.5C 225.665,191.167 265.665,191.833 305.5,192.5C 264.82,191.839 224.486,192.506 184.5,194.5C 183.007,195.312 182.34,196.645 182.5,198.5C 183.135,220.654 183.802,242.654 184.5,264.5C 184.5,265.5 184.5,266.5 184.5,267.5C 226.833,267.5 269.167,267.5 311.5,267.5C 312.167,267.5 312.833,267.5 313.5,267.5C 313.082,268.222 312.416,268.722 311.5,269C 291.816,269.797 272.149,269.631 252.5,268.5C 248.845,269.082 245.178,269.582 241.5,270C 249.97,270.956 258.303,271.79 266.5,272.5C 257.5,272.5 248.5,272.5 239.5,272.5C 239.5,271.5 239.5,270.5 239.5,269.5C 222.82,269.167 206.153,269.501 189.5,270.5C 201.815,271.499 214.149,271.832 226.5,271.5C 226.795,273.735 226.461,275.735 225.5,277.5C 225.5,276.167 225.5,274.833 225.5,273.5C 212.098,272.825 198.598,272.158 185,271.5C 184.536,272.094 184.369,272.761 184.5,273.5C 184.5,275.5 184.5,277.5 184.5,279.5C 197.011,279.829 209.345,279.495 221.5,278.5C 222.492,278.672 223.158,278.338 223.5,277.5C 223.833,277.5 224.167,277.5 224.5,277.5C 224.586,278.496 224.252,279.329 223.5,280C 212.172,280.5 200.838,280.667 189.5,280.5C 189.5,281.5 189.5,282.5 189.5,283.5C 231.337,283.168 273.003,283.501 314.5,284.5C 270.499,284.333 226.499,284.5 182.5,285C 181.357,291.418 181.19,297.918 182,304.5C 182.383,305.056 182.883,305.389 183.5,305.5C 185.948,306.473 188.615,306.806 191.5,306.5C 190.192,307.232 188.858,308.066 187.5,309C 188.056,309.383 188.389,309.883 188.5,310.5C 185.57,309.701 182.57,309.368 179.5,309.5C 177.738,308.738 176.738,307.404 176.5,305.5C 176.334,298.492 176.5,291.492 177,284.5C 177.667,283.833 178.333,283.167 179,282.5C 179.5,252.835 179.667,223.169 179.5,193.5C 180.08,191.251 181.413,189.585 183.5,188.5C 226.457,187.511 269.457,187.178 312.5,187.5 Z"/></g>
<g><path style="opacity:1" fill="#a87133" d="M 223.5,275.5 C 175.5,276.167 175.5,276.833 223.5,277.5C 223.158,278.338 222.492,278.672 221.5,278.5C 209.829,278.667 198.162,278.5 186.5,278C 185.663,276.989 185.33,275.822 185.5,274.5C 198.344,274.171 211.011,274.505 223.5,275.5 Z"/></g>
<g><path style="opacity:1" fill="#ad8558" d="M 184.5,273.5 C 198.167,273.5 211.833,273.5 225.5,273.5C 225.5,274.833 225.5,276.167 225.5,277.5C 225.167,277.5 224.833,277.5 224.5,277.5C 224.167,277.5 223.833,277.5 223.5,277.5C 223.5,276.833 223.5,276.167 223.5,275.5C 211.011,274.505 198.344,274.171 185.5,274.5C 185.33,275.822 185.663,276.989 186.5,278C 198.162,278.5 209.829,278.667 221.5,278.5C 209.345,279.495 197.011,279.829 184.5,279.5C 184.5,277.5 184.5,275.5 184.5,273.5 Z"/></g>
<g><path style="opacity:1" fill="#b17027" d="M 223.5,275.5 C 223.5,276.167 223.5,276.833 223.5,277.5C 175.5,276.833 175.5,276.167 223.5,275.5 Z"/></g>
<g><path style="opacity:1" fill="#f2d2b0" d="M 225.5,273.5 C 211.833,273.5 198.167,273.5 184.5,273.5C 184.369,272.761 184.536,272.094 185,271.5C 198.598,272.158 212.098,272.825 225.5,273.5 Z"/></g>
<g><path style="opacity:1" fill="#f9eed9" d="M 255.5,202.5 C 265.702,206.036 273.035,212.703 277.5,222.5C 277.5,222.833 277.5,223.167 277.5,223.5C 278.775,228.82 278.775,234.153 277.5,239.5C 276.024,245.82 272.691,250.987 267.5,255C 263.315,257.064 259.315,259.231 255.5,261.5C 247.53,262.28 240.197,260.614 233.5,256.5C 232.609,255.89 231.609,255.557 230.5,255.5C 228.397,252.28 226.064,249.28 223.5,246.5C 217.316,231.572 219.983,218.572 231.5,207.5C 238.816,203.013 246.816,201.346 255.5,202.5 Z"/></g>
<g><path style="opacity:1" fill="#feeecb" d="M 184.5,194.5 C 184.5,217.833 184.5,241.167 184.5,264.5C 183.802,242.654 183.135,220.654 182.5,198.5C 182.34,196.645 183.007,195.312 184.5,194.5 Z"/></g>
<g><path style="opacity:1" fill="#a47646" d="M 214.5,212.5 C 215.166,217.322 215.499,222.322 215.5,227.5C 215.599,233.579 215.099,239.579 214,245.5C 213.167,247.667 211.667,249.167 209.5,250C 204.98,250.814 200.646,250.647 196.5,249.5C 200.182,249.665 203.848,249.499 207.5,249C 209.939,248.226 211.773,246.726 213,244.5C 214.429,233.912 214.929,223.245 214.5,212.5 Z"/></g>
<g><path style="opacity:1" fill="#f9ebd1" d="M 209.5,207.5 C 211.43,207.771 212.764,208.771 213.5,210.5C 213.328,211.492 213.662,212.158 214.5,212.5C 214.929,223.245 214.429,233.912 213,244.5C 211.773,246.726 209.939,248.226 207.5,249C 203.848,249.499 200.182,249.665 196.5,249.5C 195.833,249.167 195.167,248.833 194.5,248.5C 194.167,247.833 193.833,247.167 193.5,246.5C 198.103,247.383 202.77,247.717 207.5,247.5C 207.5,246.5 207.5,245.5 207.5,244.5C 203.486,244.666 199.486,244.499 195.5,244C 195,243.5 194.5,243 194,242.5C 193.333,235.5 193.333,228.5 194,221.5C 193.917,217.689 194.75,214.355 196.5,211.5C 200.312,210.676 204.312,210.176 208.5,210C 209.252,209.329 209.586,208.496 209.5,207.5 Z"/></g>
<g><path style="opacity:1" fill="#af8657" d="M 184.5,194.5 C 184.833,194.5 185.167,194.5 185.5,194.5C 185.169,217.673 185.502,240.673 186.5,263.5C 188.306,264.024 189.972,264.691 191.5,265.5C 231.33,266.499 271.33,266.832 311.5,266.5C 311.5,266.833 311.5,267.167 311.5,267.5C 269.167,267.5 226.833,267.5 184.5,267.5C 184.5,266.5 184.5,265.5 184.5,264.5C 184.5,241.167 184.5,217.833 184.5,194.5 Z"/></g>
<g><path style="opacity:1" fill="#d5b897" d="M 313.5,194.5 C 314.498,218.661 314.831,242.994 314.5,267.5C 314.167,267.5 313.833,267.5 313.5,267.5C 312.833,267.5 312.167,267.5 311.5,267.5C 311.5,267.167 311.5,266.833 311.5,266.5C 313.49,242.857 314.157,218.857 313.5,194.5 Z"/></g>
<g><path style="opacity:1" fill="#a7743e" d="M 312.5,194.5 C 312.833,194.5 313.167,194.5 313.5,194.5C 314.157,218.857 313.49,242.857 311.5,266.5C 271.33,266.832 231.33,266.499 191.5,265.5C 231.167,265.5 270.833,265.5 310.5,265.5C 312.36,254.913 312.86,244.246 312,233.5C 304.043,233.438 295.877,233.438 287.5,233.5C 287.799,235.604 287.466,237.604 286.5,239.5C 285.52,236.914 285.187,234.247 285.5,231.5C 284.069,231.119 283.236,230.119 283,228.5C 282.5,221.508 282.334,214.508 282.5,207.5C 278.833,207.5 275.167,207.5 271.5,207.5C 271.5,208.833 271.5,210.167 271.5,211.5C 273.144,211.286 274.644,211.62 276,212.5C 277.199,215.726 277.699,219.059 277.5,222.5C 273.035,212.703 265.702,206.036 255.5,202.5C 259.233,202.87 262.899,203.537 266.5,204.5C 269.616,205.075 272.783,205.409 276,205.5C 285.653,203.776 295.486,203.11 305.5,203.5C 307.806,203.993 310.139,204.326 312.5,204.5C 312.5,201.167 312.5,197.833 312.5,194.5 Z"/></g>
<g><path style="opacity:1" fill="#b76d22" d="M 285.5,231.5 C 285.187,234.247 285.52,236.914 286.5,239.5C 287.466,237.604 287.799,235.604 287.5,233.5C 295.877,233.438 304.043,233.438 312,233.5C 312.86,244.246 312.36,254.913 310.5,265.5C 270.833,265.5 231.167,265.5 191.5,265.5C 189.972,264.691 188.306,264.024 186.5,263.5C 186.5,259.167 186.5,254.833 186.5,250.5C 187.762,247.929 189.095,247.929 190.5,250.5C 192.017,249.089 193.351,249.256 194.5,251C 206.863,256.152 214.53,252.319 217.5,239.5C 218.176,240.602 218.842,241.602 219.5,242.5C 220.833,243.833 222.167,245.167 223.5,246.5C 224.03,249.682 225.03,252.682 226.5,255.5C 227.833,255.5 229.167,255.5 230.5,255.5C 231.609,255.557 232.609,255.89 233.5,256.5C 233.329,258.993 234.329,260.826 236.5,262C 243.014,262.82 249.347,262.653 255.5,261.5C 262.472,261.785 267.805,259.119 271.5,253.5C 276.082,253.419 278.582,251.086 279,246.5C 279.497,244.19 279.663,241.857 279.5,239.5C 280.691,234.999 280.691,230.499 279.5,226C 279.316,224.624 278.649,223.791 277.5,223.5C 277.5,223.167 277.5,222.833 277.5,222.5C 277.699,219.059 277.199,215.726 276,212.5C 274.644,211.62 273.144,211.286 271.5,211.5C 271.5,210.167 271.5,208.833 271.5,207.5C 275.167,207.5 278.833,207.5 282.5,207.5C 282.334,214.508 282.5,221.508 283,228.5C 283.236,230.119 284.069,231.119 285.5,231.5 Z"/></g>
<g><path style="opacity:1" fill="#ab743a" d="M 233.5,256.5 C 240.197,260.614 247.53,262.28 255.5,261.5C 249.347,262.653 243.014,262.82 236.5,262C 234.329,260.826 233.329,258.993 233.5,256.5 Z"/></g>
<g><path style="opacity:1" fill="#ac743a" d="M 267.5,245.5 C 266.785,247.56 265.451,249.226 263.5,250.5C 254.024,257.121 244.69,257.121 235.5,250.5C 245.794,254.122 255.461,253.122 264.5,247.5C 265.251,246.624 265.751,245.624 266,244.5C 266.383,245.056 266.883,245.389 267.5,245.5 Z"/></g>
<g><path style="opacity:1" fill="#a57643" d="M 223.5,246.5 C 226.064,249.28 228.397,252.28 230.5,255.5C 229.167,255.5 227.833,255.5 226.5,255.5C 225.03,252.682 224.03,249.682 223.5,246.5 Z"/></g>
<g><path style="opacity:1" fill="#ad7235" d="M 277.5,239.5 C 278.167,239.5 278.833,239.5 279.5,239.5C 279.663,241.857 279.497,244.19 279,246.5C 278.582,251.086 276.082,253.419 271.5,253.5C 267.805,259.119 262.472,261.785 255.5,261.5C 259.315,259.231 263.315,257.064 267.5,255C 272.691,250.987 276.024,245.82 277.5,239.5 Z"/></g>
<g><path style="opacity:1" fill="#a8743c" d="M 264.5,214.5 C 271.667,220.502 274.167,228.169 272,237.5C 271.246,240.684 269.746,243.351 267.5,245.5C 268.517,240.769 269.85,236.103 271.5,231.5C 270.638,226.775 268.472,222.775 265,219.5C 264.506,217.866 264.34,216.199 264.5,214.5 Z"/></g>
<g><path style="opacity:1" fill="#a57b4d" d="M 277.5,223.5 C 278.649,223.791 279.316,224.624 279.5,226C 280.691,230.499 280.691,234.999 279.5,239.5C 278.833,239.5 278.167,239.5 277.5,239.5C 278.775,234.153 278.775,228.82 277.5,223.5 Z"/></g>
<g><path style="opacity:1" fill="#b66d23" d="M 239.5,210.5 C 248.267,209.562 256.6,210.896 264.5,214.5C 264.34,216.199 264.506,217.866 265,219.5C 268.472,222.775 270.638,226.775 271.5,231.5C 269.85,236.103 268.517,240.769 267.5,245.5C 266.883,245.389 266.383,245.056 266,244.5C 265.751,245.624 265.251,246.624 264.5,247.5C 255.461,253.122 245.794,254.122 235.5,250.5C 234.833,250.5 234.5,250.167 234.5,249.5C 231.696,245.99 229.529,241.99 228,237.5C 227.501,232.845 227.334,228.179 227.5,223.5C 229.574,221.238 231.574,218.738 233.5,216C 235.217,214.441 237.217,213.608 239.5,213.5C 239.5,212.5 239.5,211.5 239.5,210.5 Z"/></g>
<g><path style="opacity:1" fill="#a6753f" d="M 236.5,223.5 C 232.991,231.251 234.324,238.084 240.5,244C 249.059,248.185 256.393,246.685 262.5,239.5C 261.724,243.443 259.391,245.943 255.5,247C 237.509,249.504 230.176,241.671 233.5,223.5C 234.5,223.5 235.5,223.5 236.5,223.5 Z"/></g>
<g><path style="opacity:1" fill="#b07f4f" d="M 262.5,223.5 C 263.497,223.47 264.164,223.97 264.5,225C 265.753,228.987 265.753,232.987 264.5,237C 264.316,238.376 263.649,239.209 262.5,239.5C 263.833,234.167 263.833,228.833 262.5,223.5 Z"/></g>
<g><path style="opacity:1" fill="#f8edd7" d="M 255.5,217.5 C 257.808,219.471 260.142,221.471 262.5,223.5C 263.833,228.833 263.833,234.167 262.5,239.5C 256.393,246.685 249.059,248.185 240.5,244C 234.324,238.084 232.991,231.251 236.5,223.5C 237.878,222.455 238.878,221.122 239.5,219.5C 244.644,217.736 249.977,217.069 255.5,217.5 Z"/></g>
<g><path style="opacity:1" fill="#a77645" d="M 255.5,226.5 C 256.117,226.611 256.617,226.944 257,227.5C 259.038,236.946 255.538,240.946 246.5,239.5C 247.833,239.5 249.167,239.5 250.5,239.5C 250.5,238.5 250.5,237.5 250.5,236.5C 252.781,236.923 254.448,236.256 255.5,234.5C 255.5,232.833 255.5,231.167 255.5,229.5C 255.5,228.5 255.5,227.5 255.5,226.5 Z"/></g>
<g><path style="opacity:1" fill="#b0712d" d="M 255.5,226.5 C 255.5,227.5 255.5,228.5 255.5,229.5C 251.846,229.058 248.179,228.724 244.5,228.5C 244.22,231.272 244.887,233.772 246.5,236C 249.284,235.081 252.284,234.581 255.5,234.5C 254.448,236.256 252.781,236.923 250.5,236.5C 250.5,237.5 250.5,238.5 250.5,239.5C 249.167,239.5 247.833,239.5 246.5,239.5C 244.973,239.573 243.973,238.906 243.5,237.5C 242.38,233.528 242.38,229.528 243.5,225.5C 246.518,223.537 249.851,223.037 253.5,224C 254.756,224.417 255.423,225.25 255.5,226.5 Z"/></g>
<g><path style="opacity:1" fill="#a77c4a" d="M 243.5,225.5 C 242.38,229.528 242.38,233.528 243.5,237.5C 241.657,235.841 240.657,233.675 240.5,231C 240.613,228.601 241.613,226.768 243.5,225.5 Z"/></g>
<g><path style="opacity:1" fill="#bc6a21" d="M 255.5,229.5 C 255.5,231.167 255.5,232.833 255.5,234.5C 252.284,234.581 249.284,235.081 246.5,236C 244.887,233.772 244.22,231.272 244.5,228.5C 248.179,228.724 251.846,229.058 255.5,229.5 Z"/></g>
<g><path style="opacity:1" fill="#af8253" d="M 227.5,223.5 C 227.334,228.179 227.501,232.845 228,237.5C 229.529,241.99 231.696,245.99 234.5,249.5C 230.794,247.095 228.294,243.762 227,239.5C 226.392,236.183 225.892,232.849 225.5,229.5C 225.361,227.117 226.028,225.117 227.5,223.5 Z"/></g>
<g><path style="opacity:1" fill="#ae7943" d="M 231.5,207.5 C 219.983,218.572 217.316,231.572 223.5,246.5C 222.167,245.167 220.833,243.833 219.5,242.5C 218.81,236.19 218.476,229.857 218.5,223.5C 219.519,218.148 222.186,213.815 226.5,210.5C 227.67,208.721 229.336,207.721 231.5,207.5 Z"/></g>
<g><path style="opacity:1" fill="#a57d50" d="M 196.5,211.5 C 200.437,211.207 204.27,211.54 208,212.5C 208.825,222.342 208.658,232.009 207.5,241.5C 206.129,242.787 204.295,243.453 202,243.5C 199.705,243.453 197.871,242.787 196.5,241.5C 196.5,231.833 196.5,222.167 196.5,212.5C 196.5,212.167 196.5,211.833 196.5,211.5 Z"/></g>
<g><path style="opacity:1" fill="#b76d23" d="M 207.5,221.5 C 207.5,228.167 207.5,234.833 207.5,241.5C 204.833,241.5 202.167,241.5 199.5,241.5C 199.839,232.447 199.839,223.447 199.5,214.5C 203.759,214.102 205.592,216.102 205,220.5C 205.671,221.252 206.504,221.586 207.5,221.5 Z"/></g>
<g><path style="opacity:1" fill="#af6f2b" d="M 207.5,221.5 C 206.504,221.586 205.671,221.252 205,220.5C 205.592,216.102 203.759,214.102 199.5,214.5C 199.839,223.447 199.839,232.447 199.5,241.5C 197.527,232.225 196.86,222.558 197.5,212.5C 205.512,210.489 208.845,213.489 207.5,221.5 Z"/></g>
<g><path style="opacity:1" fill="#f2d1a9" d="M 196.5,212.5 C 196.5,222.167 196.5,231.833 196.5,241.5C 195.711,241.217 195.044,240.717 194.5,240C 195.155,230.735 195.821,221.568 196.5,212.5 Z"/></g>
<g><path style="opacity:1" fill="#f8f1e1" d="M 209.5,207.5 C 209.586,208.496 209.252,209.329 208.5,210C 204.312,210.176 200.312,210.676 196.5,211.5C 194.75,214.355 193.917,217.689 194,221.5C 193.333,228.5 193.333,235.5 194,242.5C 194.5,243 195,243.5 195.5,244C 199.486,244.499 203.486,244.666 207.5,244.5C 207.5,245.5 207.5,246.5 207.5,247.5C 202.77,247.717 198.103,247.383 193.5,246.5C 192.034,245.653 191.2,244.32 191,242.5C 190.333,231.833 190.333,221.167 191,210.5C 192.227,208.274 194.061,206.774 196.5,206C 200.167,205.333 203.833,205.333 207.5,206C 208.416,206.278 209.082,206.778 209.5,207.5 Z"/></g>
<g><path style="opacity:1" fill="#a97540" d="M 255.5,217.5 C 249.977,217.069 244.644,217.736 239.5,219.5C 239.5,218.5 239.5,217.5 239.5,216.5C 242.156,215.842 244.822,215.175 247.5,214.5C 250.319,215.43 252.986,216.43 255.5,217.5 Z"/></g>
<g><path style="opacity:1" fill="#a87a49" d="M 239.5,210.5 C 239.5,211.5 239.5,212.5 239.5,213.5C 237.217,213.608 235.217,214.441 233.5,216C 231.574,218.738 229.574,221.238 227.5,223.5C 229.43,217.237 233.43,212.904 239.5,210.5 Z"/></g>
<g><path style="opacity:1" fill="#f9e4c3" d="M 285.5,231.5 C 284.558,222.887 284.225,214.221 284.5,205.5C 293.173,205.334 301.84,205.5 310.5,206C 311.833,214.333 311.833,222.667 310.5,231C 302.173,231.5 293.84,231.666 285.5,231.5 Z"/></g>
<g><path style="opacity:1" fill="#f8f4e5" d="M 287.5,206.5 C 294.558,206.203 301.558,206.536 308.5,207.5C 309.813,215.058 309.813,222.558 308.5,230C 301.476,230.831 294.476,230.664 287.5,229.5C 287.192,228.692 286.692,228.025 286,227.5C 284.932,220.226 285.432,213.226 287.5,206.5 Z"/></g>
<g><path style="opacity:1" fill="#cca97e" d="M 304.5,211.5 C 304.833,211.5 305.167,211.5 305.5,211.5C 305.5,216.5 305.5,221.5 305.5,226.5C 300.305,226.821 295.305,226.487 290.5,225.5C 295.167,225.5 299.833,225.5 304.5,225.5C 304.5,220.833 304.5,216.167 304.5,211.5 Z"/></g>
<g><path style="opacity:1" fill="#a77138" d="M 290.5,211.5 C 295.167,211.5 299.833,211.5 304.5,211.5C 304.5,216.167 304.5,220.833 304.5,225.5C 299.833,225.5 295.167,225.5 290.5,225.5C 290.5,220.833 290.5,216.167 290.5,211.5 Z"/></g>
<g><path style="opacity:1" fill="#b66d22" d="M 301.5,213.5 C 303.402,216.337 304.069,219.671 303.5,223.5C 300.167,223.5 296.833,223.5 293.5,223.5C 294.159,220.545 294.492,217.545 294.5,214.5C 297.059,214.802 299.393,214.468 301.5,213.5 Z"/></g>
<g><path style="opacity:1" fill="#a6723c" d="M 309.5,193.5 C 269.335,194.333 229.002,194.833 188.5,195C 187.422,195.674 186.755,196.674 186.5,198C 186.886,202.789 187.053,207.622 187,212.5C 187.333,212.833 187.667,213.167 188,213.5C 189.017,211.624 189.851,209.624 190.5,207.5C 192.103,206.207 193.769,205.207 195.5,204.5C 201.597,202.995 207.597,203.328 213.5,205.5C 213.5,207.167 213.5,208.833 213.5,210.5C 212.764,208.771 211.43,207.771 209.5,207.5C 209.082,206.778 208.416,206.278 207.5,206C 203.833,205.333 200.167,205.333 196.5,206C 194.061,206.774 192.227,208.274 191,210.5C 190.333,221.167 190.333,231.833 191,242.5C 191.2,244.32 192.034,245.653 193.5,246.5C 193.833,247.167 194.167,247.833 194.5,248.5C 192.09,248.079 190.257,246.746 189,244.5C 188.831,237.476 188.331,230.476 187.5,223.5C 186.502,232.475 186.168,241.475 186.5,250.5C 186.5,254.833 186.5,259.167 186.5,263.5C 185.502,240.673 185.169,217.673 185.5,194.5C 226.663,193.501 267.997,193.168 309.5,193.5 Z"/></g>
<g><path style="opacity:1" fill="#a67743" d="M 264.5,214.5 C 256.6,210.896 248.267,209.562 239.5,210.5C 240.263,209.732 241.263,209.232 242.5,209C 250.931,207.025 258.264,208.858 264.5,214.5 Z"/></g>
<g><path style="opacity:1" fill="#fae8cc" d="M 305.5,211.5 C 305.167,211.5 304.833,211.5 304.5,211.5C 299.833,211.5 295.167,211.5 290.5,211.5C 290.611,210.883 290.944,210.383 291.5,210C 296.069,210.018 300.403,209.185 304.5,207.5C 305.429,208.689 305.762,210.022 305.5,211.5 Z"/></g>
<g><path style="opacity:1" fill="#bb6c1e" d="M 226.5,210.5 C 222.186,213.815 219.519,218.148 218.5,223.5C 216.783,218.89 215.783,213.89 215.5,208.5C 216.333,208.167 217.167,207.833 218,207.5C 220.069,208.27 221.735,209.603 223,211.5C 223.49,210.207 223.657,208.873 223.5,207.5C 224.5,207.5 225.5,207.5 226.5,207.5C 226.5,208.5 226.5,209.5 226.5,210.5 Z"/></g>
<g><path style="opacity:1" fill="#ba6c20" d="M 305.5,203.5 C 295.486,203.11 285.653,203.776 276,205.5C 272.783,205.409 269.616,205.075 266.5,204.5C 265.402,203.603 265.402,202.77 266.5,202C 273.492,201.5 280.492,201.334 287.5,201.5C 287.5,200.5 287.5,199.5 287.5,198.5C 276.864,197.823 266.197,197.823 255.5,198.5C 255.5,197.5 255.5,196.5 255.5,195.5C 272.167,195.5 288.833,195.5 305.5,195.5C 305.5,198.167 305.5,200.833 305.5,203.5 Z"/></g>
<g><path style="opacity:1" fill="#b16f2b" d="M 309.5,193.5 C 310.609,193.557 311.609,193.89 312.5,194.5C 312.5,197.833 312.5,201.167 312.5,204.5C 310.139,204.326 307.806,203.993 305.5,203.5C 305.5,200.833 305.5,198.167 305.5,195.5C 288.833,195.5 272.167,195.5 255.5,195.5C 255.5,196.5 255.5,197.5 255.5,198.5C 266.197,197.823 276.864,197.823 287.5,198.5C 287.5,199.5 287.5,200.5 287.5,201.5C 280.492,201.334 273.492,201.5 266.5,202C 265.402,202.77 265.402,203.603 266.5,204.5C 262.899,203.537 259.233,202.87 255.5,202.5C 246.816,201.346 238.816,203.013 231.5,207.5C 229.336,207.721 227.67,208.721 226.5,210.5C 226.5,209.5 226.5,208.5 226.5,207.5C 225.5,207.5 224.5,207.5 223.5,207.5C 223.657,208.873 223.49,210.207 223,211.5C 221.735,209.603 220.069,208.27 218,207.5C 217.167,207.833 216.333,208.167 215.5,208.5C 215.783,213.89 216.783,218.89 218.5,223.5C 218.476,229.857 218.81,236.19 219.5,242.5C 218.842,241.602 218.176,240.602 217.5,239.5C 214.53,252.319 206.863,256.152 194.5,251C 193.351,249.256 192.017,249.089 190.5,250.5C 189.095,247.929 187.762,247.929 186.5,250.5C 186.168,241.475 186.502,232.475 187.5,223.5C 188.331,230.476 188.831,237.476 189,244.5C 190.257,246.746 192.09,248.079 194.5,248.5C 195.167,248.833 195.833,249.167 196.5,249.5C 200.646,250.647 204.98,250.814 209.5,250C 211.667,249.167 213.167,247.667 214,245.5C 215.099,239.579 215.599,233.579 215.5,227.5C 215.499,222.322 215.166,217.322 214.5,212.5C 213.662,212.158 213.328,211.492 213.5,210.5C 213.5,208.833 213.5,207.167 213.5,205.5C 220.2,205.83 226.866,205.497 233.5,204.5C 234.246,203.264 234.579,201.93 234.5,200.5C 225.484,201.161 216.484,201.495 207.5,201.5C 207.5,200.5 207.5,199.5 207.5,198.5C 212.683,198.465 217.85,198.132 223,197.5C 231.161,198.791 239.328,200.125 247.5,201.5C 250.167,201.167 252.833,200.833 255.5,200.5C 250.198,199.533 244.865,198.867 239.5,198.5C 239.5,197.5 239.5,196.5 239.5,195.5C 222.15,195.288 204.817,195.622 187.5,196.5C 187.5,197.5 187.5,198.5 187.5,199.5C 192.119,198.342 196.785,197.842 201.5,198C 202.833,199 202.833,200 201.5,201C 198.151,201.388 194.817,201.221 191.5,200.5C 191.5,201.833 191.5,203.167 191.5,204.5C 192.833,204.5 194.167,204.5 195.5,204.5C 193.769,205.207 192.103,206.207 190.5,207.5C 189.851,209.624 189.017,211.624 188,213.5C 187.667,213.167 187.333,212.833 187,212.5C 187.053,207.622 186.886,202.789 186.5,198C 186.755,196.674 187.422,195.674 188.5,195C 229.002,194.833 269.335,194.333 309.5,193.5 Z"/></g>
<g><path style="opacity:1" fill="#ba6c1f" d="M 213.5,205.5 C 207.597,203.328 201.597,202.995 195.5,204.5C 194.167,204.5 192.833,204.5 191.5,204.5C 191.5,203.167 191.5,201.833 191.5,200.5C 194.817,201.221 198.151,201.388 201.5,201C 202.833,200 202.833,199 201.5,198C 196.785,197.842 192.119,198.342 187.5,199.5C 187.5,198.5 187.5,197.5 187.5,196.5C 204.817,195.622 222.15,195.288 239.5,195.5C 239.5,196.5 239.5,197.5 239.5,198.5C 244.865,198.867 250.198,199.533 255.5,200.5C 252.833,200.833 250.167,201.167 247.5,201.5C 239.328,200.125 231.161,198.791 223,197.5C 217.85,198.132 212.683,198.465 207.5,198.5C 207.5,199.5 207.5,200.5 207.5,201.5C 216.484,201.495 225.484,201.161 234.5,200.5C 234.579,201.93 234.246,203.264 233.5,204.5C 226.866,205.497 220.2,205.83 213.5,205.5 Z"/></g>
<g><path style="opacity:1" fill="#fef1d3" d="M 312.5,191.5 C 312.557,192.609 312.89,193.609 313.5,194.5C 313.167,194.5 312.833,194.5 312.5,194.5C 311.609,193.89 310.609,193.557 309.5,193.5C 267.997,193.168 226.663,193.501 185.5,194.5C 185.167,194.5 184.833,194.5 184.5,194.5C 224.486,192.506 264.82,191.839 305.5,192.5C 307.861,192.326 310.194,191.993 312.5,191.5 Z"/></g>
<g><path style="opacity:1" fill="#f0f6ef" d="M 312.5,191.5 C 310.194,191.993 307.861,192.326 305.5,192.5C 265.665,191.833 225.665,191.167 185.5,190.5C 227.496,189.333 269.496,189.167 311.5,190C 312.056,190.383 312.389,190.883 312.5,191.5 Z"/></g>
<g><path style="opacity:1" fill="#b08956" d="M 314.5,284.5 C 315.167,284.833 315.833,285.167 316.5,285.5C 316.811,292.09 316.478,298.59 315.5,305C 271.501,305.5 227.501,305.667 183.5,305.5C 182.883,305.389 182.383,305.056 182,304.5C 181.19,297.918 181.357,291.418 182.5,285C 226.499,284.5 270.499,284.333 314.5,284.5 Z"/></g>
<g><path style="opacity:1" fill="#b17127" d="M 183.5,287.5 C 184.5,287.5 185.5,287.5 186.5,287.5C 186.078,291.722 186.745,295.722 188.5,299.5C 189.183,299.137 189.85,298.804 190.5,298.5C 191.167,298.5 191.5,298.833 191.5,299.5C 229.819,301.494 268.486,302.161 307.5,301.5C 269.002,302.333 230.335,302.833 191.5,303C 228.832,303.5 266.165,303.667 303.5,303.5C 263.317,304.807 222.984,304.807 182.5,303.5C 182.179,297.974 182.512,292.64 183.5,287.5 Z"/></g>
<g><path style="opacity:1" fill="#ab7b46" d="M 308.5,294.5 C 311.358,297.214 311.024,299.548 307.5,301.5C 268.486,302.161 229.819,301.494 191.5,299.5C 230.5,299.5 269.5,299.5 308.5,299.5C 308.5,297.833 308.5,296.167 308.5,294.5 Z"/></g>
<g><path style="opacity:1" fill="#a96f34" d="M 314.5,303.5 C 314.5,298.833 314.5,294.167 314.5,289.5C 312.516,289.617 310.85,288.95 309.5,287.5C 303.167,287.167 296.833,286.833 290.5,286.5C 257.521,286.799 224.521,286.965 191.5,287C 189.408,287.953 189.075,289.286 190.5,291C 229.832,291.5 269.165,291.667 308.5,291.5C 308.5,292.5 308.5,293.5 308.5,294.5C 288.709,293.845 268.875,293.512 249,293.5C 229.488,293.5 210.322,294.167 191.5,295.5C 190.596,296.209 190.263,297.209 190.5,298.5C 189.85,298.804 189.183,299.137 188.5,299.5C 186.745,295.722 186.078,291.722 186.5,287.5C 185.5,287.5 184.5,287.5 183.5,287.5C 204.656,286.167 226.156,285.5 248,285.5C 270.61,285.531 293.11,286.198 315.5,287.5C 315.821,293.026 315.488,298.36 314.5,303.5 Z"/></g>
<g><path style="opacity:1" fill="#fbe6c9" d="M 308.5,294.5 C 308.5,296.167 308.5,297.833 308.5,299.5C 269.5,299.5 230.5,299.5 191.5,299.5C 191.5,298.833 191.167,298.5 190.5,298.5C 190.263,297.209 190.596,296.209 191.5,295.5C 210.322,294.167 229.488,293.5 249,293.5C 268.875,293.512 288.709,293.845 308.5,294.5 Z"/></g>
<g><path style="opacity:1" fill="#f9f4e5" d="M 191.5,295.5 C 229.833,295.5 268.167,295.5 306.5,295.5C 306.5,296.5 306.5,297.5 306.5,298.5C 268.832,298.667 231.165,298.5 193.5,298C 192.244,297.583 191.577,296.75 191.5,295.5 Z"/></g>
<g><path style="opacity:1" fill="#b86d22" d="M 314.5,303.5 C 310.833,303.5 307.167,303.5 303.5,303.5C 266.165,303.667 228.832,303.5 191.5,303C 230.335,302.833 269.002,302.333 307.5,301.5C 311.024,299.548 311.358,297.214 308.5,294.5C 308.5,293.5 308.5,292.5 308.5,291.5C 269.165,291.667 229.832,291.5 190.5,291C 189.075,289.286 189.408,287.953 191.5,287C 224.521,286.965 257.521,286.799 290.5,286.5C 296.833,286.833 303.167,287.167 309.5,287.5C 310.85,288.95 312.516,289.617 314.5,289.5C 314.5,294.167 314.5,298.833 314.5,303.5 Z"/></g>
<g><path style="opacity:1" fill="#fce9cc" d="M 319.5,281.5 C 320.458,281.953 321.292,282.619 322,283.5C 322.667,290.833 322.667,298.167 322,305.5C 321.623,306.942 320.79,307.942 319.5,308.5C 277.18,306.505 234.513,305.839 191.5,306.5C 188.615,306.806 185.948,306.473 183.5,305.5C 227.501,305.667 271.501,305.5 315.5,305C 316.478,298.59 316.811,292.09 316.5,285.5C 317.5,285.5 318.5,285.5 319.5,285.5C 319.5,284.167 319.5,282.833 319.5,281.5 Z"/></g>
<g><path style="opacity:1" fill="#f7f2ec" d="M 191.5,306.5 C 234.513,305.839 277.18,306.505 319.5,308.5C 319.027,309.906 318.027,310.573 316.5,310.5C 273.833,310.5 231.167,310.5 188.5,310.5C 188.389,309.883 188.056,309.383 187.5,309C 188.858,308.066 190.192,307.232 191.5,306.5 Z"/></g>
<g><path style="opacity:1" fill="#feedc3" d="M 179.5,309.5 C 182.57,309.368 185.57,309.701 188.5,310.5C 231.167,310.5 273.833,310.5 316.5,310.5C 316.5,310.833 316.5,311.167 316.5,311.5C 315.833,311.5 315.167,311.5 314.5,311.5C 269.832,311.667 225.165,311.5 180.5,311C 179.944,310.617 179.611,310.117 179.5,309.5 Z"/></g>
<g><path style="opacity:1" fill="#a67236" d="M 175.5,305.5 C 175.833,305.5 176.167,305.5 176.5,305.5C 176.738,307.404 177.738,308.738 179.5,309.5C 179.611,310.117 179.944,310.617 180.5,311C 225.165,311.5 269.832,311.667 314.5,311.5C 313.89,312.391 313.557,313.391 313.5,314.5C 272.85,313.535 232.184,313.201 191.5,313.5C 187.116,313.826 182.783,313.492 178.5,312.5C 176.146,310.754 175.146,308.421 175.5,305.5 Z"/></g>
<g><path style="opacity:1" fill="#bb692c" d="M 191.5,313.5 C 232.184,313.201 272.85,313.535 313.5,314.5C 313.389,315.117 313.056,315.617 312.5,316C 272.168,316.5 231.835,316.667 191.5,316.5C 191.5,315.5 191.5,314.5 191.5,313.5 Z"/></g>
<g><path style="opacity:1" fill="#f2d5aa" d="M 230.5,380.5 C 231.451,381.919 231.784,383.585 231.5,385.5C 231.5,387.833 231.5,390.167 231.5,392.5C 231.167,392.5 230.833,392.5 230.5,392.5C 230.167,392.5 229.833,392.5 229.5,392.5C 229.725,382.092 228.725,382.092 226.5,392.5C 225.5,392.5 224.5,392.5 223.5,392.5C 222.521,385.878 221.521,385.878 220.5,392.5C 219.511,388.893 219.177,385.226 219.5,381.5C 220.675,381.281 221.675,381.614 222.5,382.5C 223.432,384.795 224.265,387.129 225,389.5C 226.373,386.061 228.207,383.061 230.5,380.5 Z"/></g>
<g><path style="opacity:1" fill="#a78c66" d="M 229.5,392.5 C 228.5,391.167 227.5,391.167 226.5,392.5C 228.725,382.092 229.725,382.092 229.5,392.5 Z"/></g>
<g><path style="opacity:1" fill="#ab7439" d="M 275.5,392.5 C 274.81,382.237 276.143,381.903 279.5,391.5C 280.325,392.386 281.325,392.719 282.5,392.5C 282.823,388.774 282.489,385.107 281.5,381.5C 280.667,389.215 279.167,389.215 277,381.5C 275.989,380.663 274.822,380.33 273.5,380.5C 273.5,384.5 273.5,388.5 273.5,392.5C 272.5,392.5 271.5,392.5 270.5,392.5C 268.894,389.014 267.894,385.347 267.5,381.5C 266.178,381.33 265.011,381.663 264,382.5C 262.729,385.484 261.562,388.484 260.5,391.5C 259.391,391.557 258.391,391.89 257.5,392.5C 255.696,393.162 253.696,393.495 251.5,393.5C 248.887,393.357 246.553,392.69 244.5,391.5C 243.859,387.73 242.359,384.397 240,381.5C 237.317,384.701 235.483,388.367 234.5,392.5C 233.5,391.167 232.5,391.167 231.5,392.5C 231.5,390.167 231.5,387.833 231.5,385.5C 232.708,386.234 234.041,386.567 235.5,386.5C 234.962,378.532 238.129,376.532 245,380.5C 248.213,379.993 251.38,379.326 254.5,378.5C 257.685,380.037 260.352,379.37 262.5,376.5C 265.102,377.681 267.602,379.014 270,380.5C 278.545,380.926 287.045,380.426 295.5,379C 297,379.833 298.167,381 299,382.5C 300.023,386.317 299.523,389.817 297.5,393C 294.242,393.212 291.076,393.712 288,394.5C 287.612,393.572 286.945,392.905 286,392.5C 282.354,393.754 278.854,393.754 275.5,392.5 Z"/></g>
<g><path style="opacity:1" fill="#f9dfb1" d="M 257.5,392.5 C 254.5,392.833 253.167,391.5 253.5,388.5C 252.5,388.5 251.5,388.5 250.5,388.5C 250.762,389.978 250.429,391.311 249.5,392.5C 248.511,388.893 248.177,385.226 248.5,381.5C 251.685,381.02 254.519,381.686 257,383.5C 256.888,385.178 256.388,386.845 255.5,388.5C 255.752,390.073 256.418,391.406 257.5,392.5 Z"/></g>
<g><path style="opacity:1" fill="#a27e4f" d="M 296.5,384.5 C 296.833,385.167 297.167,385.833 297.5,386.5C 295.473,386.338 293.473,386.505 291.5,387C 292.938,387.219 294.271,387.719 295.5,388.5C 293.977,390.283 291.977,390.949 289.5,390.5C 287.886,383.092 290.219,381.092 296.5,384.5 Z"/></g>
<g><path style="opacity:1" fill="#f6d6a4" d="M 296.5,384.5 C 290.219,381.092 287.886,383.092 289.5,390.5C 291.977,390.949 293.977,390.283 295.5,388.5C 294.271,387.719 292.938,387.219 291.5,387C 293.473,386.505 295.473,386.338 297.5,386.5C 297.66,388.199 297.494,389.866 297,391.5C 296.667,391.167 296.333,390.833 296,390.5C 292.706,393.311 289.706,392.978 287,389.5C 285.758,383.757 287.925,380.923 293.5,381C 295.056,381.72 296.056,382.887 296.5,384.5 Z"/></g>
<g><path style="opacity:1" fill="#f7d8a9" d="M 270.5,392.5 C 268.844,391.854 267.177,391.187 265.5,390.5C 263.945,390.722 262.611,391.389 261.5,392.5C 260.893,392.376 260.56,392.043 260.5,391.5C 261.562,388.484 262.729,385.484 264,382.5C 265.011,381.663 266.178,381.33 267.5,381.5C 267.894,385.347 268.894,389.014 270.5,392.5 Z"/></g>
<g><path style="opacity:1" fill="#948263" d="M 264.5,383.5 C 266.213,384.635 266.88,386.302 266.5,388.5C 265.448,388.649 264.448,388.483 263.5,388C 264.38,386.644 264.714,385.144 264.5,383.5 Z"/></g>
<g><path style="opacity:1" fill="#9f8156" d="M 250.5,382.5 C 251.833,382.5 253.167,382.5 254.5,382.5C 254.833,385.5 253.5,386.833 250.5,386.5C 250.5,385.167 250.5,383.833 250.5,382.5 Z"/></g>
<g><path style="opacity:1" fill="#f4d5a8" d="M 275.5,392.5 C 274.833,392.5 274.167,392.5 273.5,392.5C 273.5,388.5 273.5,384.5 273.5,380.5C 274.822,380.33 275.989,380.663 277,381.5C 279.167,389.215 280.667,389.215 281.5,381.5C 282.489,385.107 282.823,388.774 282.5,392.5C 281.325,392.719 280.325,392.386 279.5,391.5C 276.143,381.903 274.81,382.237 275.5,392.5 Z"/></g>
<g><path style="opacity:1" fill="#f6d7a6" d="M 244.5,391.5 C 244.44,392.043 244.107,392.376 243.5,392.5C 242.532,391.511 241.365,390.844 240,390.5C 238.2,391.378 236.367,392.045 234.5,392.5C 235.483,388.367 237.317,384.701 240,381.5C 242.359,384.397 243.859,387.73 244.5,391.5 Z"/></g>
<g><path style="opacity:1" fill="#988665" d="M 239.5,383.5 C 240.931,384.78 241.598,386.447 241.5,388.5C 240.5,388.5 239.5,388.5 238.5,388.5C 238.629,386.784 238.962,385.117 239.5,383.5 Z"/></g>
<g><path style="opacity:1" fill="#aa7539" d="M 230.5,380.5 C 228.207,383.061 226.373,386.061 225,389.5C 224.265,387.129 223.432,384.795 222.5,382.5C 221.675,381.614 220.675,381.281 219.5,381.5C 219.177,385.226 219.511,388.893 220.5,392.5C 221.521,385.878 222.521,385.878 223.5,392.5C 224.5,392.5 225.5,392.5 226.5,392.5C 227.5,391.167 228.5,391.167 229.5,392.5C 229.833,392.5 230.167,392.5 230.5,392.5C 227.702,393.474 224.702,394.14 221.5,394.5C 213.143,394.385 204.809,394.052 196.5,393.5C 194.855,389.675 194.188,385.675 194.5,381.5C 199.067,378.976 203.733,378.976 208.5,381.5C 212.322,380.623 216.322,379.956 220.5,379.5C 221.994,379.709 223.161,380.376 224,381.5C 226.105,378.24 228.271,377.906 230.5,380.5 Z"/></g>
<g><path style="opacity:1" fill="#fbdfad" d="M 208.5,381.5 C 210.857,381.337 213.19,381.503 215.5,382C 213.866,382.494 212.199,382.66 210.5,382.5C 210.5,383.5 210.5,384.5 210.5,385.5C 215.833,386.167 215.833,386.833 210.5,387.5C 210.5,388.5 210.5,389.5 210.5,390.5C 212.288,390.215 213.955,390.548 215.5,391.5C 213.257,392.474 210.924,392.808 208.5,392.5C 208.5,388.833 208.5,385.167 208.5,381.5 Z"/></g>
<g><path style="opacity:1" fill="#f7d9a7" d="M 197.5,380.5 C 200.056,380.132 202.056,380.966 203.5,383C 203.167,383.5 202.833,384 202.5,384.5C 201.476,383.147 200.143,382.48 198.5,382.5C 198.809,385.346 200.475,386.846 203.5,387C 204.833,388.667 204.833,390.333 203.5,392C 201.231,392.758 199.064,392.591 197,391.5C 196.333,390.5 196.333,389.5 197,388.5C 198.555,390.515 200.389,390.848 202.5,389.5C 200.999,388.248 199.332,387.248 197.5,386.5C 196.306,384.484 196.306,382.484 197.5,380.5 Z"/></g>
<g><path style="opacity:1" fill="#b26f29" d="M 194.5,381.5 C 194.188,385.675 194.855,389.675 196.5,393.5C 204.809,394.052 213.143,394.385 221.5,394.5C 224.702,394.14 227.702,393.474 230.5,392.5C 230.833,392.5 231.167,392.5 231.5,392.5C 232.5,391.167 233.5,391.167 234.5,392.5C 236.367,392.045 238.2,391.378 240,390.5C 241.365,390.844 242.532,391.511 243.5,392.5C 244.107,392.376 244.44,392.043 244.5,391.5C 246.553,392.69 248.887,393.357 251.5,393.5C 253.696,393.495 255.696,393.162 257.5,392.5C 258.391,391.89 259.391,391.557 260.5,391.5C 260.56,392.043 260.893,392.376 261.5,392.5C 262.611,391.389 263.945,390.722 265.5,390.5C 267.177,391.187 268.844,391.854 270.5,392.5C 267.359,393.321 264.025,393.821 260.5,394C 265.445,398.827 264.445,400.66 257.5,399.5C 257.421,398.07 257.754,396.736 258.5,395.5C 257.675,394.614 256.675,394.281 255.5,394.5C 255.5,396.167 255.5,397.833 255.5,399.5C 254.325,399.719 253.325,399.386 252.5,398.5C 253.246,397.264 253.579,395.93 253.5,394.5C 250.136,393.789 247.803,394.956 246.5,398C 246.833,398.333 247.167,398.667 247.5,399C 245.866,399.494 244.199,399.66 242.5,399.5C 242.5,397.833 242.5,396.167 242.5,394.5C 239.272,394.701 236.105,394.367 233,393.5C 231.189,394.078 229.355,394.578 227.5,395C 226.95,396.845 225.95,398.345 224.5,399.5C 223.614,398.675 223.281,397.675 223.5,396.5C 214.584,396.721 205.418,397.054 196,397.5C 194.547,391.844 193.047,386.177 191.5,380.5C 192.791,380.263 193.791,380.596 194.5,381.5 Z"/></g>
</svg>
